<?xml version="1.0" encoding="utf-8"?>
<!-- Generator: Adobe Illustrator 16.0.5, SVG Export Plug-In . SVG Version: 6.00 Build 0)  -->
<!DOCTYPE svg PUBLIC "-//W3C//DTD SVG 1.1//EN" "http://www.w3.org/Graphics/SVG/1.1/DTD/svg11.dtd">
<svg version="1.1" id="Capa_1" xmlns="http://www.w3.org/2000/svg" xmlns:xlink="http://www.w3.org/1999/xlink" x="0px" y="0px"
	 width="208.237px" height="39.447px" viewBox="0 0 208.237 39.447" enable-background="new 0 0 208.237 39.447"
	 xml:space="preserve">
<path fill="#FFFFFF" d="M0.468,16.455c0.273-0.08,0.661-0.156,1.164-0.229c0.5-0.073,0.797-0.109,0.885-0.109
	c0.347-0.009,0.576-0.064,0.689-0.167c0.055-0.213,0.08-0.391,0.08-0.533l-0.025-1.704l0.08-1.73v-1.105l0.014-1.304L3.327,8.188
	l0.057-2.972l0.011-1.345V3.686C3.332,2.754,3.273,2.242,3.216,2.148C3.156,2.055,2.902,1.937,2.448,1.794
	C2.406,1.778,2.238,1.711,1.945,1.596C1.724,1.507,1.523,1.445,1.347,1.41C1.035,1.33,0.818,1.237,0.695,1.13
	C0.677,0.9,0.666,0.722,0.666,0.598c0-0.071,0.004-0.179,0.016-0.319c0.08-0.045,0.164-0.067,0.252-0.067
	c0.213,0,0.982,0.036,2.314,0.107L5.15,0.305l1.408,0.025c0.611,0,1.396-0.037,2.354-0.108c0.283-0.024,0.446-0.037,0.492-0.037
	c0.133,0,0.229,0.036,0.278,0.104c0.069,0.098,0.105,0.271,0.105,0.525c0,0.202-0.049,0.354-0.146,0.46
	c-0.056,0.062-0.25,0.116-0.586,0.16L7.406,1.822C7.364,1.839,7.287,1.875,7.181,1.927C7.144,1.99,7.118,2.042,7.101,2.087
	L7.086,2.46L7.045,3.299V3.54v0.147c0,0.044-0.011,0.289-0.028,0.73c-0.006,0.116-0.01,0.231-0.01,0.349
	c0,0.142,0.01,0.381,0.025,0.719c0.024,0.532,0.039,0.998,0.039,1.396c0,0.462-0.015,0.989-0.039,1.585
	c-0.01,0.223-0.015,0.512-0.015,0.865l-0.053,6.312c0,0.267,0.043,0.438,0.133,0.519l1.265,0.052l0.785-0.013l0.838,0.013
	c1.428,0,2.549-0.164,3.364-0.488c0.61-0.248,1.013-0.496,1.196-0.743c0.302-0.267,0.548-0.552,0.737-0.861
	c0.188-0.31,0.405-0.822,0.646-1.538h0.426c0.214,0,0.453,0.02,0.72,0.055v0.37c0,0.638-0.08,1.751-0.239,3.345
	c-0.062,0.637-0.123,1.024-0.188,1.167c-0.202,0.036-0.331,0.054-0.387,0.054H15.77l-0.69,0.013c-0.079,0-0.605-0.035-1.582-0.105
	c-0.178-0.008-1.023-0.04-2.541-0.094c-1.519-0.054-3.002-0.078-4.456-0.078l-2.714,0.078c-1.047,0.026-2.025,0.075-2.938,0.146
	H0.652c-0.053,0-0.137-0.005-0.252-0.014c-0.018-0.099-0.027-0.183-0.027-0.252C0.373,16.894,0.405,16.623,0.468,16.455"/>
<path fill="#FFFFFF" d="M29.468,15.058l0.307,0.198c0.078,0.062,0.127,0.139,0.146,0.228l0.016,0.065
	c-0.213,0.789-0.492,1.332-0.838,1.631c-0.348,0.297-0.774,0.444-1.289,0.444c-0.522,0-0.975-0.144-1.352-0.433
	c-0.377-0.288-0.721-0.796-1.029-1.523c-0.383,0.674-0.918,1.184-1.609,1.523c-0.692,0.342-1.538,0.512-2.541,0.512
	c-0.924,0-1.602-0.19-2.036-0.578c-0.435-0.386-0.648-0.894-0.648-1.521c0-0.293,0.062-0.59,0.189-0.894
	c0.129-0.301,0.338-0.6,0.625-0.896c0.289-0.297,0.752-0.623,1.393-0.979c0.098-0.053,0.436-0.204,1.012-0.453l3.312-1.328
	c0.024-0.339,0.039-0.68,0.039-1.024c0-1.198-0.146-2.014-0.438-2.448c-0.179-0.266-0.485-0.397-0.932-0.397
	c-0.442,0-0.853,0.084-1.226,0.253c-0.372,0.168-0.643,0.386-0.812,0.649c-0.125,0.196-0.23,0.564-0.318,1.105
	c-0.062,0.39-0.119,0.616-0.172,0.678c-0.137,0.168-0.375,0.322-0.729,0.459c-0.351,0.138-0.588,0.237-0.711,0.299
	c-0.479,0.231-0.859,0.348-1.146,0.348c-0.123-0.106-0.188-0.259-0.188-0.452c0-0.506,0.104-0.94,0.317-1.306
	c0.319-0.514,0.802-1.013,1.441-1.494c0.644-0.483,1.244-0.823,1.805-1.02c0.765-0.248,1.691-0.373,2.793-0.373
	c0.711,0,1.318,0.131,1.83,0.395c0.51,0.262,0.863,0.648,1.062,1.164c0.198,0.514,0.299,1.439,0.299,2.778l-0.025,2.195l0.025,1.61
	v0.41c0,0.373,0.053,0.63,0.149,0.767c0.101,0.138,0.229,0.206,0.388,0.206c0.098,0,0.18-0.026,0.248-0.079l0.399-0.626
	L29.468,15.058z M25.105,11.972c-0.506,0.168-1.075,0.448-1.709,0.845c-0.635,0.394-1.075,0.791-1.323,1.188
	c-0.179,0.293-0.267,0.652-0.267,1.078c0,0.381,0.113,0.696,0.346,0.944c0.23,0.249,0.496,0.373,0.8,0.373
	c0.496,0,0.916-0.144,1.266-0.426c0.469-0.383,0.742-0.687,0.822-0.911c0.08-0.228,0.119-0.867,0.119-1.923
	C25.156,12.753,25.14,12.363,25.105,11.972"/>
<path fill="#FFFFFF" d="M37.569,1.53l1.135-0.426C38.989,0.998,39.731,0.63,40.934,0h0.584c0.151,0,0.285,0.009,0.398,0.027
	c0.01,0.257,0.016,0.435,0.016,0.533l-0.016,0.546l0.08,5.01l-0.025,1.919c0.258-0.284,0.599-0.581,1.021-0.891
	c0.09-0.062,0.334-0.189,0.731-0.379c0.396-0.191,0.72-0.313,0.957-0.366c0.426-0.1,0.803-0.146,1.131-0.146
	c0.879,0,1.595,0.11,2.147,0.332c0.556,0.224,1.077,0.57,1.569,1.045c0.491,0.476,0.905,1.139,1.243,1.988
	c0.213,0.541,0.318,1.202,0.318,1.982c0,0.506-0.087,1.074-0.262,1.71c-0.172,0.634-0.452,1.253-0.844,1.854
	c-0.283,0.436-0.688,0.86-1.203,1.277c-0.521,0.417-1.114,0.749-1.791,0.997c-0.441,0.169-1.2,0.253-2.271,0.253
	c-0.984,0-2.091-0.364-3.312-1.091c-0.319-0.195-0.552-0.328-0.689-0.399c-0.18,0.258-0.375,0.568-0.594,0.931
	c-0.219,0.364-0.365,0.604-0.445,0.721l-0.664,0.013c0-0.213,0.013-0.43,0.032-0.652c0.021-0.222,0.032-0.431,0.032-0.626
	l-0.015-0.983l0.041-0.348c0.019-0.143,0.024-0.391,0.024-0.746V4.778c0-0.978-0.03-1.611-0.095-1.904
	c-0.019-0.089-0.051-0.151-0.101-0.191c-0.051-0.04-0.508-0.221-1.375-0.539V1.53H37.569z M42.011,8.82l-0.014,2.075
	c0,2.297,0.057,3.672,0.166,4.124c0.108,0.452,0.403,0.845,0.887,1.177c0.479,0.333,0.982,0.499,1.516,0.499
	c0.392,0,0.781-0.08,1.171-0.239c0.391-0.16,0.688-0.337,0.893-0.532c0.312-0.293,0.541-0.603,0.691-0.932
	c0.239-0.514,0.391-0.984,0.452-1.41c0.078-0.585,0.119-1.051,0.119-1.396c0-0.729-0.147-1.448-0.444-2.162
	c-0.3-0.714-0.716-1.246-1.252-1.599c-0.535-0.35-1.119-0.523-1.748-0.523c-0.392,0-0.853,0.111-1.386,0.333
	C42.53,8.456,42.181,8.652,42.011,8.82"/>
<path fill="#FFFFFF" d="M53.21,10.501c0.23-0.755,0.437-1.256,0.612-1.505c0.498-0.728,1.026-1.296,1.59-1.705
	c0.563-0.408,1.069-0.679,1.522-0.812c0.586-0.169,1.062-0.253,1.424-0.253c0.835,0,1.509,0.062,2.021,0.19
	c0.515,0.129,0.944,0.313,1.291,0.552c0.495,0.347,0.896,0.696,1.196,1.052c0.3,0.354,0.547,0.771,0.737,1.249
	c0.188,0.479,0.295,1.059,0.312,1.739l-1.477-0.023c-0.407,0-1.305-0.039-2.688-0.116c-0.515-0.045-0.868-0.067-1.063-0.067
	c-0.062,0-0.541,0.011-1.437,0.027h-1.146c-0.019,0.124-0.026,0.231-0.026,0.319c0,0.472,0.061,0.968,0.175,1.486
	c0.114,0.521,0.285,0.979,0.519,1.374c0.229,0.396,0.519,0.736,0.858,1.021c0.341,0.284,0.692,0.489,1.058,0.614l0.771,0.253
	c0.685,0,1.142-0.022,1.37-0.066c0.427-0.089,0.8-0.202,1.123-0.34c0.324-0.137,0.718-0.37,1.179-0.698
	c0.317,0.23,0.587,0.439,0.8,0.625c-0.781,0.86-1.59,1.483-2.429,1.869s-1.776,0.579-2.813,0.579c-0.7,0-1.272-0.062-1.715-0.187
	c-0.597-0.159-1.131-0.404-1.61-0.732c-0.479-0.328-0.892-0.737-1.235-1.225c-0.347-0.489-0.604-0.99-0.771-1.507
	c-0.223-0.675-0.332-1.217-0.332-1.625C53.026,11.819,53.085,11.123,53.21,10.501 M60.941,9.938
	c-0.008-0.499-0.104-0.978-0.293-1.432c-0.188-0.452-0.475-0.808-0.862-1.062C59.394,7.191,59,7.064,58.599,7.064
	c-0.595,0-1.129,0.262-1.608,0.785c-0.479,0.521-0.748,1.231-0.812,2.128l3.03,0.025c0.196,0,0.472-0.014,0.825-0.04
	c0.258-0.023,0.438-0.037,0.545-0.037C60.66,9.927,60.78,9.931,60.941,9.938"/>
<path fill="#FFFFFF" d="M64.931,16.965c0.195-0.135,0.455-0.221,0.775-0.257c0.615-0.069,0.971-0.164,1.059-0.277
	c0.181-0.23,0.271-0.7,0.271-1.409v-3.748l-0.025-0.892V7.697l-0.027-3.07V4.094c0-0.726-0.057-1.262-0.174-1.606
	c-0.312-0.188-0.647-0.279-1.006-0.279c-0.215,0-0.414-0.021-0.604-0.065c-0.026-0.223-0.041-0.387-0.041-0.492
	c0-0.071,0.01-0.15,0.026-0.239c0.699-0.08,1.427-0.26,2.179-0.539c0.752-0.28,1.327-0.564,1.729-0.856L69.458,0
	c0.08,0,0.193,0.004,0.344,0.015c0.053,3.064,0.08,5.166,0.08,6.301c0,0.336-0.01,0.605-0.027,0.81v0.08l0.027,0.253v5.889
	l0.025,1.94v0.319c0,0.381,0.062,0.649,0.186,0.811c0.105,0.115,0.332,0.188,0.676,0.213c0.185,0.019,0.549,0.062,1.097,0.133
	c0.045,0.187,0.065,0.338,0.065,0.452c0,0.088-0.012,0.212-0.026,0.372l-1.052-0.048c-0.584-0.04-1.319-0.059-2.207-0.059
	l-0.491-0.015c-0.507,0-1.238,0.041-2.195,0.12h-0.971L64.931,16.965z"/>
<path fill="#FFFFFF" d="M72.021,16.965c0.197-0.135,0.455-0.221,0.776-0.257c0.614-0.069,0.97-0.164,1.058-0.277
	c0.181-0.23,0.271-0.7,0.271-1.409v-3.748L74.1,10.382V7.697l-0.026-3.07V4.094c0-0.726-0.058-1.262-0.175-1.606
	c-0.312-0.188-0.647-0.279-1.006-0.279c-0.213,0-0.414-0.021-0.604-0.065c-0.025-0.223-0.041-0.387-0.041-0.492
	c0-0.071,0.012-0.15,0.026-0.239c0.699-0.08,1.427-0.26,2.179-0.539c0.752-0.28,1.328-0.564,1.729-0.856L76.549,0
	c0.078,0,0.191,0.004,0.342,0.015c0.054,3.064,0.08,5.166,0.08,6.301c0,0.336-0.01,0.605-0.026,0.81v0.08l0.026,0.253v5.889
	l0.025,1.94v0.319c0,0.381,0.062,0.649,0.186,0.811c0.105,0.115,0.332,0.188,0.676,0.213c0.185,0.019,0.55,0.062,1.097,0.133
	c0.045,0.187,0.065,0.338,0.065,0.452c0,0.088-0.01,0.212-0.026,0.372l-1.052-0.048c-0.584-0.04-1.319-0.059-2.207-0.059
	l-0.491-0.015c-0.506,0-1.236,0.041-2.193,0.12h-0.973L72.021,16.965z"/>
<path fill="#FFFFFF" d="M80.16,10.501c0.231-0.755,0.438-1.256,0.612-1.505c0.496-0.728,1.024-1.296,1.591-1.705
	c0.562-0.408,1.069-0.679,1.522-0.812c0.584-0.169,1.06-0.253,1.422-0.253c0.834,0,1.508,0.062,2.021,0.19
	c0.516,0.129,0.942,0.313,1.289,0.552c0.498,0.347,0.896,0.696,1.196,1.052c0.304,0.354,0.55,0.771,0.738,1.249
	c0.189,0.479,0.295,1.059,0.312,1.739l-1.478-0.023c-0.408,0-1.304-0.039-2.688-0.116c-0.515-0.045-0.869-0.067-1.062-0.067
	c-0.062,0-0.541,0.011-1.438,0.027h-1.146c-0.02,0.124-0.024,0.231-0.024,0.319c0,0.472,0.058,0.968,0.172,1.486
	c0.114,0.521,0.289,0.979,0.521,1.374c0.229,0.396,0.517,0.736,0.855,1.021c0.343,0.284,0.692,0.489,1.061,0.614l0.771,0.253
	c0.684,0,1.141-0.022,1.369-0.066c0.426-0.089,0.801-0.202,1.125-0.34c0.321-0.137,0.715-0.37,1.176-0.698
	c0.32,0.23,0.586,0.439,0.8,0.625c-0.778,0.86-1.591,1.483-2.429,1.869s-1.773,0.579-2.812,0.579c-0.701,0-1.272-0.062-1.718-0.187
	c-0.595-0.159-1.132-0.404-1.608-0.732c-0.479-0.328-0.892-0.737-1.238-1.225c-0.346-0.489-0.602-0.99-0.771-1.507
	c-0.223-0.675-0.332-1.217-0.332-1.625C79.976,11.819,80.037,11.123,80.16,10.501 M87.892,9.938
	c-0.01-0.499-0.106-0.978-0.293-1.432c-0.188-0.452-0.477-0.808-0.865-1.062c-0.391-0.254-0.784-0.381-1.184-0.381
	c-0.596,0-1.133,0.262-1.609,0.785c-0.478,0.521-0.75,1.231-0.812,2.128l3.033,0.025c0.194,0,0.473-0.014,0.826-0.04
	c0.256-0.023,0.438-0.037,0.545-0.037C87.612,9.927,87.732,9.931,87.892,9.938"/>
<path fill="#FFFFFF" d="M99.482,7.808c-0.459-0.02-1.039-0.026-1.737-0.026c-1.222,0-2.032,0.101-2.429,0.304
	c-0.594,0.3-1.071,0.776-1.434,1.43l-0.387,0.516L92.6,10.004c0.008-0.148,0.054-0.336,0.133-0.557
	c0.197-0.486,0.5-1.432,0.91-2.838c0.136-0.479,0.265-0.863,0.39-1.154h0.28c0.115,0,0.289,0.004,0.521,0.013
	c0.044,0.179,0.07,0.372,0.08,0.585c0,0.284,0.043,0.521,0.135,0.705l0.156,0.067l0.68,0.04l7.426-0.147
	c0.043,0.215,0.064,0.379,0.064,0.492c0,0.045-0.006,0.129-0.014,0.253c-1.242,1.509-1.983,2.428-2.224,2.754
	c-1.263,1.738-2.638,3.553-4.123,5.441l-0.27,0.306l-0.45,0.532l0.466,0.026c0.574,0,1.592-0.095,3.047-0.28
	c0.565-0.071,0.937-0.164,1.104-0.281c0.213-0.142,0.655-0.77,1.332-1.884c0.123-0.213,0.227-0.378,0.307-0.495l0.853,0.015
	l-0.134,1.116c-0.035,0.32-0.062,0.573-0.08,0.761c-0.021,0.186-0.051,0.417-0.101,0.689c-0.05,0.275-0.091,0.59-0.129,0.945
	c-0.007,0.149-0.021,0.293-0.037,0.426l-5.562-0.027l-4.271,0.015l-0.491-0.015v-0.748c0.187-0.257,0.34-0.466,0.465-0.625
	l2.498-3.085l2.084-2.738C98.33,9.423,98.941,8.589,99.482,7.808"/>
<path fill="#FFFFFF" d="M116.864,15.058l0.308,0.198c0.077,0.062,0.128,0.139,0.146,0.228l0.015,0.065
	c-0.213,0.789-0.491,1.332-0.838,1.631c-0.347,0.297-0.773,0.444-1.289,0.444c-0.521,0-0.974-0.144-1.351-0.433
	c-0.377-0.288-0.721-0.796-1.03-1.523c-0.382,0.674-0.918,1.184-1.608,1.523c-0.692,0.342-1.538,0.512-2.541,0.512
	c-0.925,0-1.603-0.19-2.036-0.578c-0.436-0.386-0.649-0.894-0.649-1.521c0-0.293,0.062-0.59,0.19-0.894
	c0.129-0.301,0.338-0.6,0.625-0.896c0.289-0.297,0.752-0.623,1.392-0.979c0.098-0.053,0.437-0.204,1.012-0.453l3.312-1.328
	c0.023-0.339,0.039-0.68,0.039-1.024c0-1.198-0.146-2.014-0.438-2.448c-0.177-0.266-0.484-0.397-0.931-0.397
	c-0.444,0-0.854,0.084-1.227,0.253c-0.371,0.168-0.643,0.386-0.812,0.649c-0.125,0.196-0.231,0.564-0.319,1.105
	c-0.062,0.39-0.119,0.616-0.172,0.678c-0.136,0.168-0.375,0.322-0.728,0.459c-0.352,0.138-0.588,0.237-0.711,0.299
	c-0.479,0.231-0.861,0.348-1.146,0.348c-0.123-0.106-0.187-0.259-0.187-0.452c0-0.506,0.104-0.94,0.316-1.306
	c0.319-0.514,0.803-1.013,1.442-1.494c0.642-0.483,1.244-0.823,1.804-1.02c0.766-0.248,1.692-0.373,2.793-0.373
	c0.711,0,1.319,0.131,1.83,0.395c0.51,0.262,0.864,0.648,1.063,1.164c0.198,0.514,0.299,1.439,0.299,2.778l-0.026,2.195l0.026,1.61
	v0.41c0,0.373,0.052,0.63,0.149,0.767c0.101,0.138,0.229,0.206,0.388,0.206c0.097,0,0.179-0.026,0.248-0.079l0.396-0.626
	L116.864,15.058z M112.5,11.972c-0.506,0.168-1.074,0.448-1.709,0.845c-0.635,0.394-1.074,0.791-1.322,1.188
	c-0.18,0.293-0.268,0.652-0.268,1.078c0,0.381,0.114,0.696,0.348,0.944c0.229,0.249,0.494,0.373,0.799,0.373
	c0.496,0,0.916-0.144,1.265-0.426c0.469-0.383,0.743-0.687,0.823-0.911c0.08-0.228,0.119-0.867,0.119-1.923
	C112.554,12.753,112.535,12.363,112.5,11.972"/>
<path fill="#FFFFFF" d="M135.806,14.088c0.144,0.08,0.25,0.135,0.318,0.16c0.203,0.088,0.368,0.199,0.493,0.332
	c-0.24,0.887-0.82,1.654-1.743,2.301c-0.924,0.648-2.09,0.974-3.5,0.974c-0.887,0-1.764-0.188-2.633-0.561
	c-0.869-0.373-1.562-0.863-2.076-1.477c-0.396-0.47-0.695-1.046-0.896-1.729c-0.2-0.683-0.301-1.264-0.301-1.743
	c0-0.574,0.125-1.229,0.373-1.962c0.248-0.73,0.666-1.421,1.25-2.066c0.586-0.648,1.322-1.163,2.215-1.544
	c0.894-0.381,1.896-0.572,3.015-0.572c1.532,0,2.604,0.24,3.204,0.719c0.604,0.479,0.906,0.958,0.906,1.438
	c0,0.47-0.123,0.84-0.367,1.109c-0.243,0.271-0.577,0.406-1.004,0.406c-0.362,0-0.698-0.12-1.004-0.357
	c-0.309-0.24-0.562-0.645-0.768-1.213c-0.159-0.406-0.361-0.703-0.609-0.891c-0.248-0.177-0.545-0.266-0.893-0.266
	c-0.834,0-1.579,0.355-2.234,1.068c-0.656,0.717-0.983,1.688-0.983,2.92c0,1.482,0.401,2.659,1.204,3.533
	c0.804,0.873,1.714,1.312,2.731,1.312c0.507,0,0.937-0.059,1.291-0.173c0.222-0.08,0.522-0.255,0.903-0.521
	c0.1-0.071,0.28-0.261,0.554-0.572C135.525,14.403,135.707,14.194,135.806,14.088"/>
<path fill="#FFFFFF" d="M149.494,15.058l0.309,0.198c0.077,0.062,0.127,0.139,0.146,0.228l0.014,0.065
	c-0.213,0.789-0.49,1.332-0.838,1.631c-0.346,0.297-0.773,0.444-1.289,0.444c-0.521,0-0.973-0.144-1.35-0.433
	c-0.378-0.288-0.722-0.796-1.031-1.523c-0.381,0.674-0.918,1.184-1.607,1.523c-0.692,0.342-1.539,0.512-2.541,0.512
	c-0.926,0-1.604-0.19-2.037-0.578c-0.436-0.386-0.649-0.894-0.649-1.521c0-0.293,0.062-0.59,0.19-0.894
	c0.129-0.301,0.338-0.6,0.625-0.896c0.289-0.297,0.752-0.623,1.392-0.979c0.1-0.053,0.438-0.204,1.012-0.453l3.312-1.328
	c0.025-0.339,0.039-0.68,0.039-1.024c0-1.198-0.146-2.014-0.438-2.448c-0.177-0.266-0.484-0.397-0.93-0.397
	s-0.853,0.084-1.226,0.253c-0.373,0.168-0.645,0.386-0.812,0.649c-0.125,0.196-0.23,0.564-0.32,1.105
	c-0.062,0.39-0.117,0.616-0.172,0.678c-0.136,0.168-0.375,0.322-0.728,0.459c-0.351,0.138-0.588,0.237-0.711,0.299
	c-0.479,0.231-0.86,0.348-1.146,0.348c-0.123-0.106-0.187-0.259-0.187-0.452c0-0.506,0.104-0.94,0.317-1.306
	c0.319-0.514,0.802-1.013,1.442-1.494c0.643-0.483,1.243-0.823,1.803-1.02c0.766-0.248,1.691-0.373,2.793-0.373
	c0.712,0,1.32,0.131,1.83,0.395c0.512,0.262,0.865,0.648,1.063,1.164c0.199,0.514,0.299,1.439,0.299,2.778l-0.026,2.195l0.026,1.61
	v0.41c0,0.373,0.052,0.63,0.15,0.767c0.1,0.138,0.229,0.206,0.387,0.206c0.097,0,0.179-0.026,0.248-0.079l0.396-0.626
	L149.494,15.058z M145.132,11.972c-0.508,0.168-1.076,0.448-1.71,0.845c-0.636,0.394-1.075,0.791-1.323,1.188
	c-0.18,0.293-0.268,0.652-0.268,1.078c0,0.381,0.115,0.696,0.348,0.944c0.229,0.249,0.496,0.373,0.799,0.373
	c0.496,0,0.916-0.144,1.265-0.426c0.469-0.383,0.744-0.687,0.823-0.911c0.08-0.228,0.119-0.867,0.119-1.923
	C145.185,12.753,145.166,12.363,145.132,11.972"/>
<path fill="#FFFFFF" d="M150.864,6.798c0.098-0.034,0.178-0.062,0.239-0.08h3.966l0.291,0.027l0.026,0.89l-0.039,1.304l0.012,0.677
	l-0.012,2.006v1.368c0,0.895,0.049,1.599,0.146,2.113c0.133,0.389,0.35,0.684,0.646,0.883s0.656,0.299,1.084,0.299
	c0.396,0,0.724-0.04,0.972-0.12c0.247-0.079,0.534-0.229,0.858-0.451c0.32-0.222,0.527-0.381,0.615-0.478
	c0.26-0.284,0.438-0.545,0.533-0.785l0.094-3.306c0.019-0.347,0.026-0.629,0.026-0.852c0-0.229-0.007-0.521-0.021-0.87
	c-0.016-0.35-0.021-0.547-0.021-0.591l0.014-0.492l-0.024-0.292c-0.213-0.133-0.51-0.217-0.895-0.252l-0.891-0.065
	c-0.054-0.027-0.103-0.059-0.146-0.095c-0.034-0.177-0.054-0.31-0.054-0.397c0-0.106,0.017-0.257,0.039-0.452
	c0.295-0.045,0.547-0.067,0.763-0.067l2.054,0.027c0.553,0,1.229-0.009,2.028-0.027l0.024,0.997l-0.054,1.274l0.025,1.595
	l-0.014,2.285l-0.027,1.022l0.016,0.689c-0.035,0.461-0.054,0.724-0.054,0.784c0,0.222,0.038,0.385,0.118,0.492
	c0.08,0.104,0.154,0.159,0.229,0.159l1.224-0.04l0.159,0.025c0.027,0.312,0.041,0.487,0.041,0.532c0,0.062-0.014,0.159-0.041,0.292
	c-0.471,0.02-0.807,0.049-1.012,0.094c-0.947,0.212-1.985,0.527-3.11,0.944l-0.533-0.026l-0.015-2.169
	c-0.104,0.089-0.262,0.228-0.465,0.412c-0.781,0.692-1.449,1.16-2.008,1.404c-0.561,0.244-1.146,0.366-1.758,0.366
	c-0.729,0-1.355-0.151-1.892-0.452c-0.53-0.301-0.922-0.673-1.17-1.116c-0.187-0.345-0.312-0.841-0.373-1.488
	c-0.019-0.168-0.024-1.036-0.024-2.604l0.014-0.425c0.045-0.868,0.066-1.512,0.066-1.929c0-0.708-0.015-1.182-0.041-1.421
	c-0.008-0.113-0.053-0.248-0.133-0.397c-0.125-0.055-0.271-0.095-0.438-0.119c-0.565-0.099-0.923-0.191-1.063-0.28
	c-0.043-0.024-0.065-0.084-0.065-0.173c0-0.053,0.009-0.124,0.021-0.213C150.83,7.148,150.847,7.002,150.864,6.798"/>
<path fill="#FFFFFF" d="M166.069,7.471c1.047-0.442,1.803-0.878,2.269-1.304c0.468-0.425,0.966-1.113,1.497-2.07h0.744
	c0.08,0.229,0.119,0.475,0.119,0.73c0,0.461-0.004,0.82-0.013,1.077l-0.041,0.785c0,0.045,0.004,0.146,0.015,0.306l0.308,0.014
	c0.044,0,0.462-0.019,1.25-0.054c0.062,0,0.396-0.008,0.998-0.025c0.054,0.236,0.077,0.447,0.077,0.633
	c0,0.202-0.029,0.438-0.092,0.711c-0.293,0.053-0.517,0.08-0.666,0.08c-0.069,0-0.213-0.02-0.427-0.055h-0.69l-0.236-0.013
	l-0.641,0.039l-0.025,5.082c-0.012,0.985,0.012,1.599,0.062,1.843c0.049,0.244,0.151,0.479,0.312,0.698
	c0.203,0.098,0.43,0.146,0.678,0.146c0.24,0,0.416-0.021,0.531-0.065c0.113-0.044,0.312-0.173,0.586-0.385
	c0.054-0.045,0.138-0.106,0.254-0.188c0.213,0.168,0.386,0.336,0.519,0.505l0.055,0.159c-0.312,0.488-0.746,0.871-1.311,1.151
	c-0.562,0.277-1.164,0.419-1.804,0.419c-0.825,0-1.496-0.263-2.01-0.784c-0.516-0.522-0.771-1.333-0.771-2.431l0.053-2.338V8.351
	l-0.411-0.027l-0.957,0.027l-0.176-0.066c-0.053-0.079-0.08-0.154-0.08-0.224C166.041,8.01,166.052,7.814,166.069,7.471"/>
<path fill="#FFFFFF" d="M174.224,17.56l-0.024-0.865l1.502-0.2c0.225-0.062,0.375-0.153,0.459-0.271
	c0.084-0.119,0.127-0.389,0.127-0.806v-0.146c0-0.106,0.006-0.299,0.021-0.579c0.015-0.279,0.021-0.525,0.021-0.738
	c0-0.168-0.013-0.492-0.039-0.971l0.021-0.665l-0.021-0.625l0.039-2.169c0-0.274-0.023-0.56-0.08-0.853
	c-0.099-0.133-0.273-0.248-0.533-0.346c-0.262-0.097-0.713-0.168-1.354-0.213V7.37c0.914-0.053,1.718-0.243,2.408-0.572
	c0.472-0.212,0.979-0.589,1.527-1.13h0.895c0.035,1.101,0.054,2.527,0.054,4.283l-0.095,5.427c0,0.373,0.019,0.71,0.056,1.014
	c0.272,0.097,0.725,0.193,1.344,0.292c0.238,0.034,0.432,0.08,0.57,0.133l-0.023,0.73c-0.24,0.011-0.416,0.016-0.531,0.016
	c-0.133,0-0.336-0.011-0.61-0.027c-0.9-0.045-2.109-0.067-3.625-0.067c-0.435,0-0.854,0.018-1.263,0.049
	C174.653,17.544,174.373,17.56,174.224,17.56 M176.086,1.689c0-0.479,0.154-0.872,0.467-1.177c0.312-0.308,0.709-0.461,1.195-0.461
	c0.522,0,0.959,0.161,1.307,0.485c0.346,0.324,0.519,0.69,0.519,1.098c0,0.304-0.068,0.604-0.205,0.905
	c-0.14,0.301-0.354,0.543-0.65,0.726c-0.299,0.182-0.604,0.271-0.912,0.271c-0.428,0-0.818-0.182-1.178-0.545
	C176.267,2.629,176.086,2.194,176.086,1.689"/>
<path fill="#FFFFFF" d="M180.873,6.718l0.309-0.013l2.769,0.066l0.823,0.013l1.757-0.066h0.307c0.055,0.167,0.08,0.293,0.08,0.383
	c0,0.104-0.021,0.266-0.055,0.483c-0.168,0.027-0.363,0.055-0.584,0.08c-0.437,0.062-0.705,0.133-0.812,0.213
	c-0.08,0.055-0.119,0.111-0.119,0.173c0,0.15,0.058,0.339,0.172,0.561c0.056,0.088,0.179,0.377,0.373,0.865
	c0.08,0.213,0.228,0.531,0.438,0.959c0.666,1.377,1.141,2.445,1.426,3.211c0.168,0.452,0.305,0.785,0.41,0.998
	c0.621-1.431,1.291-3.25,2.01-5.461c0.188-0.577,0.293-1.043,0.318-1.399c-0.521-0.079-1.013-0.119-1.463-0.119h-0.16l-0.213-0.026
	c-0.019-0.156-0.025-0.307-0.025-0.445c0-0.21,0.033-0.368,0.105-0.474l0.465-0.039l1.158,0.015h0.649
	c0.398,0.035,0.814,0.053,1.252,0.053l1.062-0.053c0.089,0,0.214,0.004,0.371,0.013c0.011,0.157,0.015,0.284,0.015,0.381
	c0,0.098-0.004,0.22-0.015,0.367c-0.903,0.212-1.528,0.411-1.875,0.596c-0.062,0.124-0.103,0.209-0.119,0.254l-0.056,0.119
	c-0.354,1.066-0.918,2.475-1.688,4.224l-1.438,3.477c-0.188,0.444-0.323,0.75-0.411,0.919c-0.151,0.302-0.278,0.564-0.388,0.786
	h-1.078c-0.346-0.595-0.705-1.318-1.075-2.171l-1.812-4.049c-0.443-1.075-0.947-2.207-1.518-3.397
	c-0.069-0.149-0.129-0.244-0.174-0.278c-0.719-0.194-1.13-0.346-1.235-0.45c-0.02-0.105-0.026-0.225-0.026-0.354
	C180.808,6.959,180.83,6.823,180.873,6.718"/>
<path fill="#FFFFFF" d="M205.084,15.058l0.309,0.198c0.08,0.062,0.129,0.139,0.146,0.228l0.016,0.065
	c-0.213,0.789-0.492,1.332-0.838,1.631c-0.348,0.297-0.775,0.444-1.291,0.444c-0.522,0-0.975-0.144-1.352-0.433
	c-0.377-0.288-0.722-0.796-1.029-1.523c-0.383,0.674-0.92,1.184-1.609,1.523c-0.69,0.342-1.539,0.512-2.541,0.512
	c-0.922,0-1.604-0.19-2.035-0.578c-0.437-0.386-0.651-0.894-0.651-1.521c0-0.293,0.063-0.59,0.192-0.894
	c0.13-0.301,0.337-0.6,0.625-0.896c0.287-0.297,0.752-0.623,1.392-0.979c0.1-0.053,0.436-0.204,1.012-0.453l3.312-1.328
	c0.026-0.339,0.041-0.68,0.041-1.024c0-1.198-0.146-2.014-0.438-2.448c-0.18-0.266-0.487-0.397-0.933-0.397
	s-0.853,0.084-1.224,0.253c-0.373,0.168-0.646,0.386-0.812,0.649c-0.125,0.196-0.229,0.564-0.316,1.105
	c-0.062,0.39-0.121,0.616-0.176,0.678c-0.133,0.168-0.375,0.322-0.725,0.459c-0.353,0.138-0.589,0.237-0.714,0.299
	c-0.479,0.231-0.858,0.348-1.143,0.348c-0.125-0.106-0.188-0.259-0.188-0.452c0-0.506,0.106-0.94,0.319-1.306
	c0.316-0.514,0.801-1.013,1.441-1.494c0.644-0.483,1.244-0.823,1.805-1.02c0.762-0.248,1.691-0.373,2.793-0.373
	c0.709,0,1.316,0.131,1.83,0.395c0.51,0.262,0.861,0.648,1.062,1.164c0.2,0.514,0.301,1.439,0.301,2.778l-0.025,2.195l0.025,1.61
	v0.41c0,0.373,0.049,0.63,0.149,0.767c0.101,0.138,0.229,0.206,0.386,0.206c0.096,0,0.18-0.026,0.248-0.079l0.399-0.626
	L205.084,15.058z M200.722,11.972c-0.504,0.168-1.074,0.448-1.709,0.845c-0.634,0.394-1.074,0.791-1.322,1.188
	c-0.178,0.293-0.269,0.652-0.269,1.078c0,0.381,0.114,0.696,0.347,0.944c0.229,0.249,0.498,0.373,0.799,0.373
	c0.496,0,0.918-0.144,1.265-0.426c0.473-0.383,0.744-0.687,0.824-0.911c0.08-0.228,0.12-0.867,0.12-1.923
	C200.776,12.753,200.757,12.363,200.722,11.972"/>
<path fill="#FFFFFF" d="M0.005,28.757L0,28.44l0.999,0.062l0.447-0.004h0.162c0.171,0,0.437-0.01,0.799-0.029
	c0.206-0.014,0.336-0.021,0.389-0.021c0.353,0,0.615,0.019,0.796,0.059c0.271,0.057,0.487,0.146,0.647,0.269
	c0.161,0.123,0.299,0.297,0.415,0.523c0.114,0.229,0.174,0.438,0.174,0.634c0,0.483-0.151,0.879-0.458,1.181
	c-0.305,0.302-0.688,0.453-1.153,0.453c-0.162,0-0.315-0.021-0.464-0.06c-0.146-0.039-0.281-0.098-0.409-0.176
	c-0.017-0.08-0.021-0.19-0.021-0.334c0.067,0.006,0.128,0.01,0.182,0.012c0.057,0.005,0.104,0.007,0.146,0.007
	c0.236,0,0.436-0.066,0.598-0.197c0.214-0.17,0.322-0.447,0.322-0.829c0-0.273-0.047-0.498-0.141-0.672
	c-0.097-0.176-0.205-0.293-0.333-0.355c-0.181-0.083-0.379-0.125-0.604-0.125c-0.209,0-0.356,0.03-0.447,0.094
	C2.024,28.965,2.007,29,1.994,29.033l0.029,1.97l-0.008,0.168l0.013,0.177c0.002,0.037,0.004,0.097,0.004,0.172v0.343l0.004,0.547
	l-0.008,0.653c0,0.092,0.008,0.216,0.024,0.372l0.832,0.104c0.011,0.067,0.018,0.119,0.018,0.158c0,0.042-0.008,0.101-0.021,0.176
	c-0.07,0.011-0.123,0.019-0.159,0.019c-0.086,0-0.249-0.013-0.489-0.032c-0.239-0.021-0.513-0.031-0.818-0.031
	c-0.345,0-0.675,0.022-0.984,0.067c-0.055,0.008-0.139,0.015-0.251,0.021c-0.013-0.081-0.019-0.141-0.019-0.18
	c0-0.025,0.003-0.064,0.009-0.117l0.255-0.085c0.175-0.052,0.325-0.116,0.453-0.192c0.025-0.081,0.037-0.152,0.037-0.221
	c0-0.028-0.001-0.06-0.004-0.096c-0.003-0.087-0.004-0.208-0.004-0.364l-0.013-1.174l-0.046-1.325
	c-0.021-0.63-0.035-0.969-0.046-1.019c-0.021-0.081-0.055-0.146-0.103-0.191c-0.046-0.046-0.126-0.078-0.235-0.098
	C0.235,28.814,0.08,28.782,0.005,28.757"/>
<path fill="#FFFFFF" d="M5.489,28.477c0.158,0.008,0.297,0.021,0.414,0.038c0.22,0.028,0.475,0.045,0.765,0.045
	c0.103,0,0.357-0.01,0.772-0.024c0.621-0.026,1.184-0.038,1.685-0.038l0.759-0.008c0.171,0,0.421,0.02,0.752,0.062
	c0.05,0.058,0.073,0.133,0.073,0.228v0.861l0.011,0.171c0,0.017-0.002,0.042-0.006,0.073l-0.172,0.011
	c-0.021,0-0.068-0.003-0.144-0.011c-0.023-0.055-0.06-0.137-0.1-0.244l-0.169-0.299c-0.062-0.125-0.152-0.254-0.269-0.385
	c-0.069-0.019-0.158-0.03-0.268-0.033c-0.028-0.003-0.113-0.009-0.256-0.021C9.076,28.881,8.8,28.87,8.501,28.87
	c-0.341,0-0.646,0.005-0.91,0.019c-0.011,0.067-0.015,0.343-0.015,0.82l0.004,0.703v0.526c0.07,0.009,0.132,0.013,0.183,0.013
	c0.5,0,0.854-0.01,1.065-0.03c0.214-0.019,0.346-0.046,0.396-0.081c0.051-0.033,0.097-0.095,0.136-0.182
	c0.023-0.061,0.072-0.266,0.146-0.614l0.054-0.004l0.243,0.004c0.011,0.248,0.018,0.438,0.018,0.564
	c0,0.293-0.002,0.479-0.008,0.562c-0.004,0.084-0.006,0.149-0.006,0.197c0,0.075,0.004,0.195,0.014,0.361
	c0.008,0.166,0.013,0.289,0.013,0.37v0.092H9.535c-0.013-0.045-0.031-0.136-0.062-0.276c-0.057-0.259-0.104-0.42-0.149-0.483
	c-0.033-0.052-0.089-0.089-0.167-0.113c-0.058-0.021-0.264-0.029-0.62-0.029c-0.422,0-0.736,0.011-0.95,0.034v0.142
	c0,0.331,0.007,0.607,0.019,0.827l-0.009,0.903c0,0.104,0.038,0.178,0.111,0.217C7.822,33.472,8.174,33.5,8.759,33.5
	c0.387,0,0.716-0.027,0.983-0.088c0.188-0.042,0.354-0.135,0.493-0.28c0.189-0.187,0.347-0.446,0.473-0.783
	c0.087-0.011,0.157-0.015,0.215-0.015c0.028,0,0.074,0.001,0.138,0.004c-0.007,0.07-0.016,0.128-0.021,0.178l-0.022,0.125
	l-0.151,0.79l-0.074,0.476c-0.182,0.009-0.322,0.013-0.432,0.013c-0.155,0-0.572-0.014-1.25-0.042
	c-0.478-0.02-1.052-0.027-1.724-0.027c-0.334,0-0.745,0.014-1.232,0.042H5.975l-0.507,0.016v-0.288
	c0.054-0.014,0.159-0.03,0.316-0.046c0.29-0.033,0.489-0.078,0.604-0.134c0.03-0.081,0.046-0.184,0.046-0.307
	c0-0.047-0.001-0.128-0.004-0.24l0.004-0.132l-0.013-1.573l0.006-0.475l-0.021-0.668l0.004-0.472l-0.038-0.518
	c0-0.016-0.003-0.042-0.008-0.086c-0.027-0.029-0.069-0.05-0.126-0.058c-0.029-0.006-0.072-0.015-0.125-0.023
	c-0.159-0.034-0.312-0.056-0.46-0.061c-0.054-0.003-0.114-0.008-0.186-0.017L5.489,28.477z"/>
<path fill="#FFFFFF" d="M16.098,33.825c0.131,0.084,0.229,0.152,0.292,0.205c0.399,0.323,0.759,0.562,1.073,0.723
	c0.132,0.067,0.326,0.124,0.59,0.171c0.006,0.112,0.009,0.2,0.009,0.266c0,0.055-0.003,0.11-0.009,0.171
	c-0.069,0.011-0.146,0.017-0.228,0.017c-0.394,0-0.728-0.028-1.003-0.088c-0.195-0.042-0.459-0.137-0.792-0.284
	c-0.333-0.146-0.771-0.393-1.322-0.734c-0.262-0.164-0.491-0.289-0.691-0.376c-0.434-0.185-0.79-0.398-1.074-0.645
	c-0.283-0.245-0.51-0.541-0.677-0.888s-0.251-0.729-0.251-1.139c0-0.52,0.124-1.007,0.372-1.463
	c0.248-0.453,0.646-0.823,1.197-1.107c0.373-0.192,0.849-0.288,1.423-0.288c0.452,0,0.834,0.055,1.141,0.165
	c0.308,0.11,0.572,0.257,0.798,0.441c0.228,0.183,0.416,0.388,0.568,0.61c0.151,0.226,0.271,0.47,0.359,0.737
	c0.088,0.267,0.134,0.551,0.134,0.849c0,0.342-0.059,0.666-0.173,0.971c-0.112,0.304-0.262,0.564-0.439,0.786
	c-0.18,0.224-0.394,0.417-0.637,0.589C16.609,33.61,16.39,33.715,16.098,33.825 M15.049,33.609c0.201,0,0.435-0.064,0.693-0.194
	s0.479-0.372,0.658-0.727c0.182-0.355,0.271-0.849,0.271-1.476c0-0.473-0.051-0.858-0.147-1.161
	c-0.099-0.301-0.209-0.53-0.332-0.692c-0.123-0.161-0.277-0.295-0.468-0.401c-0.248-0.136-0.503-0.204-0.767-0.204
	c-0.238,0-0.436,0.037-0.585,0.112c-0.24,0.125-0.432,0.278-0.562,0.456c-0.185,0.253-0.304,0.545-0.36,0.875
	c-0.058,0.33-0.086,0.643-0.086,0.938c0,0.329,0.032,0.663,0.101,1.005c0.063,0.34,0.162,0.61,0.293,0.813
	c0.129,0.203,0.303,0.364,0.521,0.481C14.499,33.55,14.755,33.609,15.049,33.609"/>
<path fill="#FFFFFF" d="M18.827,28.828l-0.014-0.33c0.051-0.003,0.103-0.004,0.154-0.004c0.14,0,0.285,0.004,0.438,0.012
	c0.367,0.021,0.585,0.03,0.646,0.03c0.226,0,0.441-0.005,0.654-0.014c0.215-0.008,0.403-0.016,0.569-0.019
	c0.166-0.002,0.277-0.005,0.337-0.007l-0.004,0.049l0.008,0.243v0.034c-0.155,0.021-0.315,0.033-0.482,0.033
	c-0.156,0-0.261,0.031-0.312,0.092c-0.033,0.039-0.051,0.205-0.051,0.497c0,0.09,0.001,0.162,0.005,0.217l0.004,0.151l-0.009,0.393
	l0.024,0.334l-0.019,0.725l0.056,1.049c0.015,0.304,0.08,0.556,0.199,0.756c0.09,0.146,0.215,0.263,0.377,0.347
	c0.232,0.117,0.465,0.176,0.688,0.176c0.268,0,0.518-0.033,0.748-0.104c0.137-0.039,0.266-0.104,0.387-0.19
	c0.12-0.088,0.205-0.168,0.253-0.238c0.102-0.153,0.17-0.299,0.209-0.433c0.053-0.183,0.078-0.469,0.078-0.854
	c0-0.674-0.035-1.436-0.106-2.278l-0.019-0.221c-0.008-0.165-0.038-0.275-0.092-0.33c-0.089-0.087-0.188-0.13-0.302-0.13
	l-0.39,0.007l-0.056-0.013l0.01-0.322h0.329l0.799,0.038c0.27,0,0.521-0.015,0.766-0.038l0.07,0.009
	c0.018,0.091,0.023,0.156,0.023,0.192c0,0.029-0.005,0.066-0.019,0.111c-0.104,0.028-0.212,0.045-0.325,0.052
	c-0.188,0.023-0.289,0.046-0.31,0.062c-0.039,0.034-0.06,0.085-0.06,0.155c0,0.051,0.004,0.123,0.013,0.218
	c0.009,0.069,0.014,0.19,0.014,0.363c0,0.098,0,0.175,0.003,0.229c0.001,0.057,0.003,0.113,0.006,0.171
	c0.01,0.201,0.017,0.404,0.021,0.611l0.041,0.849c0,0.569-0.021,0.949-0.061,1.143c-0.037,0.191-0.091,0.345-0.156,0.456
	c-0.104,0.167-0.25,0.32-0.438,0.462c-0.188,0.141-0.428,0.253-0.711,0.335s-0.614,0.123-0.993,0.123
	c-0.434,0-0.804-0.059-1.11-0.173c-0.312-0.116-0.543-0.27-0.7-0.456c-0.156-0.188-0.267-0.434-0.323-0.733
	c-0.042-0.206-0.062-0.502-0.062-0.886v-1.993c0-0.471-0.021-0.737-0.064-0.798c-0.062-0.087-0.254-0.136-0.573-0.147
	C18.933,28.841,18.874,28.836,18.827,28.828"/>
<path fill="#FFFFFF" d="M25.603,28.477c0.159,0.008,0.297,0.021,0.414,0.038c0.221,0.028,0.476,0.045,0.766,0.045
	c0.103,0,0.357-0.01,0.772-0.024c0.621-0.026,1.184-0.038,1.685-0.038l0.757-0.008c0.17,0,0.42,0.02,0.752,0.062
	c0.052,0.058,0.075,0.133,0.075,0.228v0.861l0.008,0.171c0,0.017-0.001,0.042-0.004,0.073l-0.171,0.011
	c-0.021,0-0.07-0.003-0.144-0.011c-0.023-0.055-0.061-0.137-0.102-0.244l-0.168-0.299c-0.062-0.125-0.151-0.254-0.269-0.385
	c-0.068-0.019-0.158-0.03-0.269-0.033c-0.026-0.003-0.111-0.009-0.255-0.021c-0.261-0.022-0.539-0.033-0.836-0.033
	c-0.341,0-0.645,0.005-0.912,0.019c-0.008,0.067-0.013,0.343-0.013,0.82l0.005,0.703v0.526c0.069,0.009,0.13,0.013,0.182,0.013
	c0.5,0,0.854-0.01,1.066-0.03c0.213-0.019,0.344-0.046,0.395-0.081c0.052-0.033,0.097-0.095,0.136-0.182
	c0.022-0.061,0.072-0.266,0.146-0.614l0.056-0.004l0.242,0.004c0.012,0.248,0.018,0.438,0.018,0.564
	c0,0.293-0.002,0.479-0.007,0.562c-0.004,0.084-0.007,0.149-0.007,0.197c0,0.075,0.005,0.195,0.014,0.361
	c0.008,0.166,0.014,0.289,0.014,0.37v0.092h-0.298c-0.012-0.045-0.031-0.136-0.062-0.276c-0.057-0.259-0.104-0.42-0.149-0.483
	c-0.032-0.052-0.089-0.089-0.167-0.113c-0.058-0.021-0.263-0.029-0.619-0.029c-0.423,0-0.738,0.011-0.951,0.034v0.142
	c0,0.331,0.006,0.607,0.02,0.827l-0.012,0.903c0,0.104,0.039,0.178,0.114,0.217c0.112,0.061,0.464,0.088,1.049,0.088
	c0.389,0,0.717-0.027,0.984-0.088c0.188-0.042,0.353-0.135,0.493-0.28c0.188-0.187,0.348-0.446,0.474-0.783
	c0.086-0.011,0.156-0.015,0.213-0.015c0.029,0,0.076,0.001,0.14,0.004c-0.01,0.07-0.017,0.128-0.021,0.178l-0.022,0.125l-0.152,0.79
	l-0.073,0.476c-0.182,0.009-0.324,0.013-0.432,0.013c-0.156,0-0.573-0.014-1.25-0.042c-0.479-0.02-1.053-0.027-1.726-0.027
	c-0.334,0-0.744,0.014-1.231,0.042h-0.176l-0.509,0.016v-0.288c0.056-0.014,0.16-0.03,0.317-0.046
	c0.29-0.033,0.49-0.078,0.604-0.134c0.03-0.081,0.047-0.184,0.047-0.307c0-0.047-0.001-0.128-0.006-0.24l0.006-0.132l-0.014-1.573
	l0.004-0.475l-0.021-0.668l0.004-0.472l-0.037-0.518c0-0.016-0.004-0.042-0.009-0.086c-0.027-0.029-0.069-0.05-0.126-0.058
	c-0.029-0.006-0.071-0.015-0.125-0.023c-0.159-0.034-0.312-0.056-0.46-0.061c-0.054-0.003-0.113-0.008-0.187-0.017L25.603,28.477z"
	/>
<path fill="#FFFFFF" d="M31.798,28.807l-0.019-0.293h0.354l0.12-0.006c0.167-0.008,0.281-0.012,0.348-0.012
	c0.033,0,0.131,0.002,0.292,0.008c0.036,0.003,0.065,0.004,0.094,0.004c0.023,0,0.111-0.002,0.262-0.008
	c0.151-0.006,0.236-0.009,0.258-0.009c0.029,0,0.072,0.002,0.13,0.005c0.429,0.391,0.776,0.727,1.049,1.007
	c0.271,0.281,1.256,1.268,2.958,2.954v-0.104l-0.02-0.484c-0.007-0.284-0.02-0.509-0.03-0.675c-0.016-0.165-0.021-0.364-0.024-0.593
	c-0.004-0.23-0.014-0.438-0.029-0.625c-0.031-0.365-0.05-0.575-0.05-0.631c-0.003-0.183-0.021-0.291-0.06-0.33
	c-0.061-0.062-0.191-0.108-0.4-0.14c-0.153-0.023-0.269-0.057-0.344-0.096l0.005-0.247l0.108-0.012l0.821-0.025l0.918-0.024
	c0.062-0.004,0.121-0.006,0.179-0.006l0.004,0.272c-0.062,0.033-0.129,0.059-0.196,0.075c-0.178,0.042-0.28,0.069-0.309,0.088
	c-0.145,0.081-0.221,0.129-0.229,0.146c-0.022,0.034-0.037,0.085-0.037,0.155c0,0.016,0.002,0.075,0.008,0.175
	c0.003,0.052,0.007,0.168,0.007,0.353c0.002,0.403,0.014,0.723,0.031,0.957c0.004,0.075,0.012,0.16,0.015,0.255l0.046,1.467
	c0.002,0.104,0.004,0.176,0.004,0.217v0.516l0.014,0.218l-0.014,0.225c0.012,0.114,0.018,0.185,0.018,0.205v0.222L37.6,34.028
	l-0.497-0.515l-1.018-1.008l-0.71-0.71l-0.521-0.535c-0.34-0.334-0.648-0.628-0.928-0.882l-0.684-0.612l0.038,1.554
	c0.003,0.095,0.004,0.19,0.004,0.293l-0.004,0.296l0.023,0.548c0.009,0.229,0.022,0.478,0.047,0.744
	c0.005,0.072,0.013,0.123,0.021,0.152c0.011,0.028,0.024,0.07,0.051,0.128c0.108,0.039,0.347,0.066,0.712,0.088
	c0.022,0.005,0.062,0.015,0.106,0.029l0.019,0.338l-0.163,0.004c-0.089,0-0.37-0.021-0.846-0.062
	c-0.441,0.005-0.736,0.016-0.886,0.025c-0.146,0.011-0.229,0.017-0.242,0.017c-0.033,0-0.08-0.006-0.14-0.017
	c-0.005-0.064-0.008-0.12-0.008-0.167c0-0.031,0.001-0.081,0.004-0.151c0.078-0.014,0.144-0.021,0.19-0.021
	c0.019,0,0.071,0.003,0.162,0.009c0.233,0,0.373-0.019,0.416-0.053s0.067-0.129,0.073-0.281c0.021-0.444,0.028-0.714,0.028-0.812
	v-0.229l0.01-1.358l-0.014-0.849c-0.003-0.323-0.022-0.547-0.062-0.672c-0.018-0.064-0.049-0.12-0.098-0.167
	c-0.097-0.103-0.206-0.176-0.324-0.228C32.289,28.894,32.102,28.855,31.798,28.807 M36.562,26.823h0.125
	c0.028,0,0.065,0.001,0.117,0.004c-0.003,0.357-0.089,0.629-0.261,0.817c-0.171,0.188-0.375,0.28-0.612,0.28
	c-0.11,0-0.226-0.014-0.334-0.041c-0.075-0.02-0.221-0.071-0.432-0.158c-0.21-0.086-0.327-0.134-0.354-0.139
	c-0.053-0.015-0.107-0.021-0.167-0.021c-0.099,0-0.174,0.022-0.229,0.071c-0.054,0.047-0.1,0.141-0.135,0.278l-0.247,0.008
	c0.003-0.021,0.005-0.072,0.005-0.153c0.004-0.268,0.097-0.489,0.269-0.669c0.173-0.182,0.368-0.271,0.585-0.271
	c0.106,0,0.214,0.013,0.312,0.038c0.103,0.025,0.248,0.078,0.44,0.159c0.191,0.081,0.314,0.128,0.37,0.142
	c0.074,0.018,0.146,0.025,0.208,0.025c0.084,0,0.149-0.024,0.205-0.071C36.481,27.075,36.525,26.975,36.562,26.823"/>
<path fill="#FFFFFF" d="M39.605,31.115c0-0.346,0.065-0.693,0.199-1.041c0.1-0.25,0.233-0.48,0.409-0.689
	c0.177-0.209,0.396-0.395,0.659-0.559c0.266-0.162,0.534-0.279,0.812-0.35c0.274-0.071,0.584-0.107,0.924-0.107
	c0.578,0,1.081,0.109,1.508,0.326c0.426,0.217,0.762,0.511,1.007,0.882c0.316,0.482,0.478,0.987,0.478,1.517
	c0,0.788-0.27,1.466-0.806,2.026c-0.534,0.563-1.28,0.845-2.234,0.845c-0.235,0-0.458-0.016-0.664-0.046
	c-0.154-0.021-0.292-0.053-0.408-0.093c-0.212-0.069-0.33-0.109-0.354-0.121c-0.306-0.172-0.549-0.349-0.729-0.53
	c-0.186-0.182-0.341-0.386-0.469-0.613c-0.069-0.128-0.148-0.359-0.237-0.693C39.634,31.652,39.605,31.402,39.605,31.115
	 M42.448,28.782c-0.242,0-0.456,0.056-0.644,0.169c-0.188,0.113-0.327,0.238-0.422,0.374c-0.158,0.231-0.271,0.484-0.34,0.758
	c-0.064,0.275-0.1,0.609-0.1,1.001c0,0.24,0.01,0.411,0.028,0.516c0.005,0.032,0.015,0.091,0.022,0.172
	c0.024,0.206,0.056,0.354,0.088,0.451c0.119,0.354,0.204,0.57,0.256,0.654c0.083,0.144,0.207,0.283,0.37,0.422
	c0.083,0.072,0.204,0.141,0.363,0.198c0.157,0.062,0.316,0.09,0.476,0.09c0.303,0,0.58-0.068,0.839-0.211
	c0.257-0.14,0.464-0.379,0.618-0.716c0.155-0.337,0.233-0.776,0.233-1.316c0-0.224-0.017-0.524-0.047-0.905l-0.021-0.08
	c-0.009-0.022-0.021-0.079-0.041-0.171c-0.104-0.457-0.301-0.807-0.592-1.045C43.252,28.903,42.888,28.782,42.448,28.782"/>
<path fill="#FFFFFF" d="M49.789,28.598c0.026,0.095,0.055,0.236,0.075,0.431c0.032,0.286,0.05,0.509,0.05,0.668
	c0,0.05-0.006,0.104-0.018,0.163l-0.042,0.012l-0.301-0.021l-0.051-0.01c-0.123-0.366-0.244-0.615-0.367-0.748
	c-0.212-0.223-0.461-0.334-0.748-0.334c-0.271,0-0.489,0.072-0.648,0.217c-0.16,0.144-0.24,0.32-0.24,0.532
	c0,0.18,0.079,0.352,0.237,0.516c0.155,0.165,0.487,0.322,0.994,0.471c0.17,0.051,0.376,0.131,0.617,0.242
	c0.24,0.111,0.424,0.231,0.549,0.363c0.167,0.173,0.282,0.34,0.346,0.5c0.062,0.158,0.095,0.358,0.095,0.6
	c0,0.262-0.05,0.52-0.146,0.773c-0.053,0.134-0.138,0.261-0.255,0.38c-0.083,0.084-0.213,0.182-0.388,0.295
	c-0.178,0.111-0.357,0.193-0.548,0.244c-0.188,0.051-0.43,0.074-0.725,0.074c-0.195,0-0.429-0.026-0.698-0.084l-0.501-0.146
	c-0.141-0.039-0.229-0.074-0.265-0.104c-0.014-0.012-0.025-0.036-0.036-0.078v-0.048c0-0.029-0.01-0.222-0.021-0.571
	c-0.007-0.182-0.009-0.311-0.009-0.386v-0.157l0.391-0.01c0.132,0.312,0.22,0.498,0.257,0.562c0.088,0.143,0.184,0.258,0.287,0.346
	s0.229,0.158,0.373,0.209c0.146,0.052,0.301,0.078,0.472,0.078c0.15,0,0.315-0.032,0.495-0.096c0.183-0.064,0.327-0.17,0.438-0.316
	c0.108-0.146,0.165-0.303,0.165-0.471c0-0.206-0.097-0.397-0.289-0.573c-0.115-0.106-0.432-0.254-0.942-0.435
	c-0.515-0.183-0.867-0.345-1.064-0.485c-0.197-0.143-0.354-0.333-0.469-0.571c-0.113-0.236-0.172-0.468-0.172-0.688
	c0-0.443,0.159-0.819,0.478-1.128c0.315-0.312,0.786-0.465,1.403-0.465c0.135,0,0.33,0.022,0.595,0.07
	C49.317,28.451,49.528,28.51,49.789,28.598"/>
<path fill="#FFFFFF" d="M53.727,28.243h0.26c0.021,0.031,0.032,0.053,0.042,0.067c0.077,0.136,0.138,0.225,0.18,0.267
	c0.036,0.008,0.229,0.013,0.572,0.013c0.215,0,0.404-0.001,0.571-0.004l0.084-0.009l0.506-0.004l0.944,0.004h1.291l0.245-0.034
	c0.035-0.023,0.074-0.093,0.116-0.203c0.014-0.023,0.025-0.06,0.046-0.104l0.187-0.004c0.026,0,0.069,0.002,0.125,0.004
	c0.003,0.191,0.004,0.481,0.004,0.87l0.005,0.371L58.9,29.69c0,0.07-0.006,0.135-0.017,0.188c-0.114,0.036-0.217,0.06-0.303,0.067
	c-0.07-0.109-0.149-0.268-0.234-0.472c-0.086-0.207-0.142-0.321-0.162-0.345c-0.033-0.036-0.071-0.06-0.117-0.07
	c-0.065-0.015-0.361-0.021-0.888-0.021c-0.078,0-0.178,0.005-0.293,0.019c-0.016,0.106-0.021,0.195-0.021,0.267l0.005,0.56v1.229
	l0.014,1.325l-0.006,0.543c0,0.191,0.019,0.337,0.053,0.435c0.045,0.021,0.127,0.038,0.247,0.054
	c0.021,0.004,0.126,0.026,0.312,0.067c0.084,0.021,0.157,0.042,0.223,0.067c0.016,0.101,0.021,0.162,0.021,0.184
	c0,0.025-0.004,0.062-0.013,0.108c-0.062,0.003-0.111,0.005-0.149,0.005c-0.287,0-0.53-0.012-0.729-0.031
	c-0.2-0.021-0.562-0.032-1.092-0.032c-0.084,0-0.329,0.019-0.734,0.05c-0.158,0.013-0.263,0.019-0.311,0.019
	c-0.003-0.042-0.006-0.074-0.009-0.096l-0.005-0.098v-0.034c0.062-0.079,0.178-0.14,0.348-0.18c0.29-0.069,0.49-0.132,0.604-0.188
	c0.027-0.054,0.045-0.122,0.051-0.209c0.021-0.334,0.029-0.866,0.029-1.598L55.7,29.924c0-0.435-0.009-0.696-0.022-0.79
	c-0.007-0.023-0.018-0.044-0.029-0.057c-0.015-0.012-0.033-0.02-0.061-0.021c-0.087-0.014-0.366-0.019-0.845-0.019
	c-0.263,0-0.438,0.025-0.524,0.075c-0.119,0.069-0.301,0.259-0.539,0.569c-0.069,0.088-0.121,0.133-0.154,0.133
	c-0.128-0.067-0.211-0.121-0.246-0.163c0.087-0.181,0.206-0.543,0.358-1.086C53.675,28.407,53.706,28.3,53.727,28.243"/>
<path fill="#FFFFFF" d="M59.591,28.477c0.157,0.008,0.297,0.021,0.413,0.038c0.221,0.028,0.476,0.045,0.766,0.045
	c0.102,0,0.357-0.01,0.771-0.024c0.621-0.026,1.185-0.038,1.686-0.038l0.757-0.008c0.171,0,0.421,0.02,0.753,0.062
	c0.05,0.058,0.074,0.133,0.074,0.228v0.861l0.009,0.171c0,0.017-0.002,0.042-0.005,0.073l-0.171,0.011
	c-0.021,0-0.069-0.003-0.145-0.011c-0.022-0.055-0.06-0.137-0.101-0.244l-0.168-0.299c-0.062-0.125-0.152-0.254-0.269-0.385
	c-0.068-0.019-0.157-0.03-0.268-0.033c-0.028-0.003-0.113-0.009-0.256-0.021c-0.26-0.022-0.538-0.033-0.836-0.033
	c-0.34,0-0.645,0.005-0.911,0.019c-0.009,0.067-0.013,0.343-0.013,0.82l0.004,0.703v0.526c0.069,0.009,0.13,0.013,0.182,0.013
	c0.5,0,0.854-0.01,1.066-0.03c0.213-0.019,0.345-0.046,0.395-0.081c0.052-0.033,0.098-0.095,0.136-0.182
	c0.023-0.061,0.072-0.266,0.146-0.614l0.055-0.004l0.243,0.004c0.011,0.248,0.019,0.438,0.019,0.564
	c0,0.293-0.003,0.479-0.009,0.562c-0.004,0.084-0.006,0.149-0.006,0.197c0,0.075,0.004,0.195,0.015,0.361
	c0.008,0.166,0.013,0.289,0.013,0.37v0.092H63.64c-0.013-0.045-0.032-0.136-0.062-0.276c-0.057-0.259-0.104-0.42-0.148-0.483
	c-0.033-0.052-0.089-0.089-0.167-0.113c-0.059-0.021-0.265-0.029-0.62-0.029c-0.422,0-0.737,0.011-0.951,0.034v0.142
	c0,0.331,0.007,0.607,0.019,0.827l-0.01,0.903c0,0.104,0.039,0.178,0.113,0.217c0.113,0.061,0.464,0.088,1.05,0.088
	c0.387,0,0.716-0.027,0.984-0.088c0.187-0.042,0.352-0.135,0.493-0.28c0.188-0.187,0.347-0.446,0.473-0.783
	c0.086-0.011,0.157-0.015,0.213-0.015c0.03,0,0.076,0.001,0.139,0.004c-0.008,0.07-0.016,0.128-0.021,0.178L65.12,32.64l-0.15,0.79
	l-0.074,0.476c-0.181,0.009-0.323,0.013-0.431,0.013c-0.156,0-0.573-0.014-1.25-0.042c-0.479-0.02-1.054-0.027-1.726-0.027
	c-0.334,0-0.745,0.014-1.231,0.042H60.08l-0.507,0.016v-0.288c0.055-0.014,0.159-0.03,0.317-0.046
	c0.29-0.033,0.49-0.078,0.603-0.134c0.03-0.081,0.046-0.184,0.046-0.307c0-0.047-0.001-0.128-0.005-0.24l0.005-0.132l-0.015-1.575
	l0.005-0.475l-0.021-0.668l0.004-0.472l-0.038-0.519c0-0.015-0.003-0.042-0.008-0.085c-0.028-0.029-0.07-0.05-0.126-0.058
	c-0.03-0.006-0.072-0.015-0.125-0.024c-0.159-0.033-0.312-0.055-0.461-0.06c-0.054-0.003-0.113-0.008-0.187-0.017L59.591,28.477z"/>
<path fill="#FFFFFF" d="M69.272,28.598c0.027,0.095,0.054,0.236,0.075,0.431c0.032,0.286,0.05,0.509,0.05,0.668
	c0,0.05-0.006,0.104-0.018,0.163l-0.042,0.012l-0.302-0.021l-0.05-0.01c-0.123-0.366-0.245-0.615-0.368-0.748
	c-0.212-0.223-0.461-0.334-0.748-0.334c-0.271,0-0.487,0.072-0.647,0.217c-0.16,0.144-0.24,0.32-0.24,0.532
	c0,0.18,0.079,0.352,0.237,0.516c0.154,0.165,0.486,0.322,0.994,0.471c0.171,0.051,0.377,0.131,0.616,0.242
	c0.241,0.111,0.425,0.231,0.55,0.363c0.167,0.173,0.281,0.34,0.346,0.5c0.062,0.158,0.095,0.358,0.095,0.6
	c0,0.262-0.05,0.52-0.146,0.773c-0.055,0.134-0.14,0.261-0.257,0.38c-0.081,0.084-0.213,0.182-0.388,0.295
	c-0.177,0.111-0.355,0.193-0.547,0.244c-0.188,0.051-0.43,0.074-0.725,0.074c-0.195,0-0.43-0.026-0.698-0.084l-0.501-0.146
	c-0.141-0.039-0.229-0.074-0.265-0.104c-0.015-0.012-0.025-0.036-0.036-0.078v-0.048c0-0.029-0.011-0.222-0.021-0.571
	c-0.007-0.182-0.009-0.311-0.009-0.386v-0.157l0.39-0.01c0.133,0.312,0.221,0.498,0.258,0.562c0.088,0.143,0.184,0.258,0.286,0.346
	c0.104,0.088,0.229,0.158,0.373,0.209c0.146,0.052,0.303,0.078,0.474,0.078c0.148,0,0.313-0.032,0.495-0.096
	c0.182-0.064,0.325-0.17,0.438-0.316c0.109-0.146,0.165-0.303,0.165-0.471c0-0.206-0.097-0.397-0.289-0.573
	c-0.116-0.106-0.432-0.254-0.943-0.435c-0.514-0.183-0.865-0.345-1.063-0.485c-0.196-0.143-0.354-0.333-0.468-0.571
	c-0.114-0.236-0.174-0.468-0.174-0.688c0-0.443,0.159-0.819,0.479-1.128c0.316-0.312,0.786-0.465,1.404-0.465
	c0.134,0,0.331,0.022,0.594,0.07C68.799,28.451,69.01,28.51,69.272,28.598"/>
<path fill="#FFFFFF" d="M70.739,31.115c0-0.346,0.066-0.693,0.199-1.041c0.099-0.25,0.233-0.48,0.409-0.689s0.396-0.395,0.66-0.559
	c0.265-0.162,0.532-0.279,0.81-0.35c0.276-0.071,0.584-0.107,0.925-0.107c0.578,0,1.081,0.109,1.507,0.326
	c0.428,0.217,0.764,0.511,1.009,0.882c0.315,0.482,0.476,0.987,0.476,1.517c0,0.788-0.268,1.466-0.804,2.026
	c-0.536,0.563-1.282,0.845-2.236,0.845c-0.235,0-0.458-0.016-0.663-0.046c-0.155-0.021-0.292-0.053-0.409-0.093
	c-0.211-0.069-0.33-0.109-0.354-0.121c-0.306-0.172-0.547-0.349-0.729-0.53c-0.186-0.182-0.34-0.386-0.469-0.613
	c-0.069-0.128-0.148-0.359-0.237-0.693C70.769,31.652,70.739,31.402,70.739,31.115 M73.582,28.782c-0.24,0-0.456,0.056-0.644,0.169
	c-0.188,0.113-0.326,0.238-0.422,0.374c-0.157,0.231-0.271,0.484-0.338,0.758c-0.065,0.275-0.102,0.609-0.102,1.001
	c0,0.24,0.011,0.411,0.028,0.516c0.006,0.032,0.015,0.091,0.023,0.172c0.024,0.206,0.056,0.354,0.089,0.451
	c0.117,0.354,0.203,0.57,0.255,0.654c0.083,0.144,0.207,0.283,0.371,0.422c0.083,0.072,0.204,0.141,0.361,0.198
	c0.158,0.062,0.316,0.09,0.477,0.09c0.303,0,0.58-0.068,0.838-0.211c0.258-0.14,0.465-0.379,0.619-0.716
	c0.155-0.337,0.232-0.776,0.232-1.316c0-0.224-0.017-0.524-0.046-0.905l-0.021-0.08c-0.009-0.022-0.021-0.079-0.041-0.171
	c-0.104-0.457-0.301-0.807-0.591-1.045C74.388,28.903,74.023,28.782,73.582,28.782"/>
<path fill="#FFFFFF" d="M77.748,33.63c0.072-0.039,0.182-0.066,0.321-0.086c0.144-0.018,0.271-0.048,0.385-0.09
	c0.016-0.055,0.021-0.096,0.024-0.121c0.005-0.039,0.009-0.173,0.009-0.399L78.483,32l0.019-0.502l-0.009-0.388l0.009-0.228
	c0.01-0.303,0.015-0.587,0.015-0.853c0-0.579-0.007-0.949-0.021-1.111l-0.246-0.05c-0.227-0.014-0.376-0.028-0.449-0.042
	l-0.011-0.251l0.019-0.046c0.141-0.022,0.269-0.033,0.385-0.033c0.063,0,0.193-0.001,0.39-0.004c0.2,0.016,0.312,0.025,0.326,0.025
	l0.221-0.014l0.521-0.024c0.326-0.033,0.671-0.05,1.032-0.05c0.569,0,1.023,0.146,1.36,0.437c0.338,0.291,0.508,0.624,0.508,1.001
	c0,0.281-0.093,0.536-0.272,0.766c-0.183,0.23-0.462,0.404-0.84,0.521c0.033,0.058,0.078,0.126,0.135,0.205
	c0.115,0.167,0.211,0.309,0.282,0.426l0.666,1.082c0.167,0.287,0.275,0.455,0.328,0.504c0.052,0.049,0.158,0.104,0.317,0.16
	c0.126,0.048,0.224,0.095,0.288,0.143c0.02,0.049,0.024,0.091,0.024,0.125c0,0.025-0.001,0.059-0.004,0.098h-0.112l-0.083,0.004
	l-0.219-0.029H82.89c-0.09-0.014-0.199-0.021-0.33-0.021l-0.418-0.004c-0.031,0-0.128,0.01-0.293,0.027
	c-0.075,0.008-0.136,0.017-0.182,0.021l-0.143-0.276c-0.116-0.209-0.198-0.364-0.246-0.468c-0.122-0.271-0.332-0.7-0.632-1.291
	c-0.139-0.273-0.235-0.428-0.292-0.464c-0.084-0.06-0.229-0.088-0.431-0.088c-0.058,0-0.151,0.003-0.284,0.009
	c-0.008,0.081-0.014,0.177-0.014,0.288l0.021,0.928l-0.023,0.787c0.078,0.047,0.182,0.083,0.307,0.108
	c0.218,0.045,0.402,0.098,0.562,0.157c0,0.138-0.008,0.239-0.018,0.311c-0.055-0.003-0.087-0.004-0.103-0.004l-0.171,0.008
	c-0.601-0.053-0.955-0.079-1.064-0.079c-0.072,0-0.124,0.001-0.154,0.004l-0.575,0.038c-0.177,0.019-0.336,0.029-0.479,0.029h-0.184
	c-0.005-0.07-0.008-0.114-0.008-0.136C77.736,33.729,77.74,33.685,77.748,33.63 M79.628,30.926c0.136,0.007,0.23,0.01,0.294,0.01
	c0.475,0,0.81-0.085,1.008-0.255c0.196-0.172,0.297-0.397,0.297-0.683c0-0.175-0.023-0.34-0.072-0.495
	c-0.05-0.153-0.109-0.269-0.183-0.345c-0.104-0.108-0.238-0.19-0.402-0.246c-0.123-0.042-0.318-0.062-0.589-0.062
	c-0.128,0-0.236,0.007-0.33,0.021l-0.008,0.079l0.008,0.564l-0.012,0.343l0.004,0.456c-0.006,0.128-0.01,0.294-0.015,0.497V30.926
	L79.628,30.926z"/>
<path fill="#FFFFFF" d="M83.834,31.115c0-0.346,0.067-0.693,0.2-1.041c0.1-0.25,0.233-0.48,0.409-0.689s0.396-0.395,0.659-0.559
	c0.266-0.162,0.534-0.279,0.811-0.35c0.275-0.071,0.584-0.107,0.925-0.107c0.577,0,1.08,0.109,1.508,0.326
	c0.426,0.217,0.762,0.511,1.007,0.882c0.315,0.482,0.477,0.987,0.477,1.517c0,0.788-0.269,1.466-0.805,2.026
	c-0.535,0.563-1.281,0.845-2.235,0.845c-0.234,0-0.458-0.016-0.664-0.046c-0.153-0.021-0.292-0.053-0.407-0.093
	c-0.211-0.069-0.33-0.109-0.354-0.121c-0.305-0.172-0.548-0.349-0.729-0.53c-0.187-0.182-0.342-0.386-0.47-0.613
	c-0.068-0.128-0.147-0.359-0.236-0.693C83.864,31.652,83.834,31.402,83.834,31.115 M86.679,28.782c-0.242,0-0.456,0.056-0.645,0.169
	c-0.188,0.113-0.327,0.238-0.422,0.374c-0.158,0.231-0.271,0.484-0.339,0.758c-0.065,0.275-0.1,0.609-0.1,1.001
	c0,0.24,0.01,0.411,0.027,0.516c0.005,0.032,0.016,0.091,0.023,0.172c0.023,0.206,0.056,0.354,0.088,0.451
	c0.119,0.354,0.204,0.57,0.256,0.654c0.083,0.144,0.207,0.283,0.37,0.422c0.083,0.072,0.204,0.141,0.363,0.198
	c0.157,0.062,0.315,0.09,0.476,0.09c0.302,0,0.579-0.068,0.838-0.211c0.257-0.14,0.464-0.379,0.619-0.716s0.233-0.776,0.233-1.316
	c0-0.224-0.018-0.524-0.047-0.905l-0.021-0.08c-0.009-0.022-0.021-0.079-0.041-0.171c-0.104-0.457-0.301-0.807-0.592-1.045
	C87.484,28.903,87.117,28.782,86.679,28.782"/>
<path fill="#FFFFFF" d="M94.021,28.598c0.026,0.095,0.054,0.236,0.075,0.431c0.031,0.286,0.05,0.509,0.05,0.668
	c0,0.05-0.006,0.104-0.019,0.163l-0.041,0.012l-0.302-0.021l-0.051-0.01c-0.122-0.366-0.244-0.615-0.367-0.748
	c-0.212-0.223-0.461-0.334-0.748-0.334c-0.271,0-0.488,0.072-0.647,0.217c-0.16,0.144-0.24,0.32-0.24,0.532
	c0,0.18,0.079,0.352,0.237,0.516c0.154,0.165,0.486,0.322,0.994,0.471c0.171,0.051,0.376,0.131,0.616,0.242
	c0.241,0.111,0.425,0.231,0.55,0.363c0.167,0.173,0.281,0.34,0.346,0.5c0.062,0.158,0.094,0.358,0.094,0.6
	c0,0.262-0.049,0.52-0.146,0.773c-0.054,0.134-0.139,0.261-0.255,0.38c-0.084,0.084-0.214,0.182-0.389,0.295
	c-0.177,0.111-0.356,0.193-0.547,0.244c-0.188,0.051-0.43,0.074-0.726,0.074c-0.194,0-0.429-0.026-0.697-0.084l-0.501-0.146
	c-0.141-0.039-0.229-0.074-0.265-0.104c-0.015-0.012-0.025-0.036-0.037-0.078v-0.048c0-0.029-0.01-0.222-0.021-0.571
	c-0.007-0.182-0.009-0.311-0.009-0.386v-0.157l0.39-0.01c0.132,0.312,0.221,0.498,0.257,0.562c0.089,0.143,0.185,0.258,0.287,0.346
	c0.104,0.088,0.229,0.158,0.373,0.209c0.146,0.052,0.303,0.078,0.473,0.078c0.149,0,0.314-0.032,0.496-0.096
	c0.182-0.064,0.325-0.17,0.438-0.316c0.109-0.146,0.165-0.303,0.165-0.471c0-0.206-0.097-0.397-0.289-0.573
	c-0.116-0.106-0.432-0.254-0.943-0.435c-0.514-0.183-0.866-0.345-1.063-0.485c-0.196-0.143-0.354-0.333-0.468-0.571
	c-0.114-0.236-0.174-0.468-0.174-0.688c0-0.443,0.159-0.819,0.479-1.128c0.315-0.312,0.786-0.465,1.404-0.465
	c0.134,0,0.33,0.022,0.594,0.07C93.547,28.451,93.759,28.51,94.021,28.598"/>
<path fill="#FFFFFF" d="M97.721,33.541c0.042-0.01,0.128-0.025,0.259-0.049c0.261-0.045,0.431-0.104,0.512-0.18
	c0.05-0.047,0.082-0.14,0.096-0.272c0.005-0.033,0.015-0.458,0.029-1.271l-0.004-0.459l0.004-0.557l-0.015-1.424v-0.167
	c0-0.072-0.021-0.128-0.06-0.167c-0.021-0.02-0.071-0.029-0.163-0.029c-0.07,0-0.153,0.01-0.25,0.025
	c-0.121,0.005-0.231,0.017-0.328,0.033c-0.02,0.003-0.044,0.007-0.08,0.013l-0.004-0.368c0.163-0.053,0.397-0.104,0.706-0.152
	c0.507-0.084,1.131-0.126,1.87-0.126c0.618,0,1.071,0.033,1.358,0.104c0.435,0.108,0.787,0.271,1.062,0.484
	c0.363,0.287,0.639,0.619,0.819,0.996c0.184,0.377,0.273,0.788,0.273,1.231c0,0.563-0.124,1.045-0.368,1.448
	c-0.244,0.402-0.598,0.724-1.057,0.966c-0.324,0.173-0.765,0.259-1.316,0.259l-0.856-0.032l-0.25-0.013l-0.339,0.008l-0.103-0.008
	l-0.352,0.008l-0.464-0.005c-0.018,0-0.158,0.011-0.426,0.027c-0.091,0.005-0.207,0.009-0.353,0.011
	c-0.09,0-0.156,0.001-0.201,0.004C97.724,33.82,97.721,33.706,97.721,33.541 M99.747,28.892c-0.006,0.086-0.009,0.146-0.009,0.184
	l0.009,0.71v0.617c0.005,0.2,0.01,0.376,0.01,0.526l-0.01,0.396l0.014,0.663l-0.014,0.409c0,0.381,0.069,0.64,0.213,0.774
	c0.206,0.195,0.49,0.292,0.854,0.292c0.276,0,0.479-0.024,0.61-0.078c0.271-0.104,0.488-0.245,0.648-0.422
	c0.159-0.176,0.28-0.424,0.363-0.744c0.085-0.32,0.126-0.652,0.126-0.994c0-0.562-0.089-1.021-0.271-1.376
	c-0.18-0.356-0.426-0.624-0.736-0.805c-0.312-0.179-0.67-0.269-1.073-0.269C100.198,28.779,99.953,28.816,99.747,28.892"/>
<path fill="#FFFFFF" d="M104.62,28.477c0.159,0.008,0.297,0.021,0.414,0.038c0.221,0.028,0.477,0.045,0.767,0.045
	c0.102,0,0.356-0.01,0.771-0.024c0.621-0.026,1.185-0.038,1.686-0.038l0.757-0.008c0.171,0,0.421,0.02,0.752,0.062
	c0.05,0.058,0.075,0.133,0.075,0.228v0.861l0.008,0.171c0,0.017-0.001,0.042-0.004,0.073l-0.171,0.011
	c-0.021,0-0.07-0.003-0.145-0.011c-0.022-0.055-0.06-0.137-0.101-0.244l-0.168-0.299c-0.062-0.125-0.152-0.254-0.27-0.385
	c-0.067-0.019-0.157-0.03-0.268-0.033c-0.027-0.003-0.112-0.009-0.255-0.021c-0.261-0.022-0.538-0.033-0.836-0.033
	c-0.341,0-0.646,0.005-0.911,0.019c-0.009,0.067-0.014,0.343-0.014,0.82l0.005,0.703v0.526c0.068,0.009,0.13,0.013,0.181,0.013
	c0.5,0,0.854-0.01,1.066-0.03c0.214-0.019,0.345-0.046,0.395-0.081c0.052-0.033,0.097-0.095,0.136-0.182
	c0.023-0.061,0.072-0.266,0.146-0.614l0.055-0.004l0.242,0.004c0.012,0.248,0.018,0.438,0.018,0.564
	c0,0.293-0.002,0.479-0.007,0.562c-0.005,0.084-0.007,0.149-0.007,0.197c0,0.075,0.005,0.195,0.014,0.361s0.015,0.289,0.015,0.37
	v0.092h-0.299c-0.012-0.045-0.03-0.136-0.062-0.276c-0.056-0.259-0.104-0.42-0.149-0.483c-0.031-0.052-0.089-0.089-0.167-0.113
	c-0.058-0.021-0.263-0.029-0.619-0.029c-0.423,0-0.737,0.011-0.95,0.034v0.142c0,0.331,0.006,0.607,0.019,0.827l-0.01,0.903
	c0,0.104,0.038,0.178,0.113,0.217c0.111,0.061,0.464,0.088,1.049,0.088c0.388,0,0.716-0.027,0.983-0.088
	c0.188-0.042,0.353-0.135,0.493-0.28c0.188-0.187,0.349-0.446,0.475-0.783c0.086-0.011,0.155-0.015,0.213-0.015
	c0.028,0,0.076,0.001,0.139,0.004c-0.008,0.07-0.016,0.128-0.021,0.178l-0.024,0.125l-0.151,0.79l-0.072,0.476
	c-0.183,0.009-0.324,0.013-0.433,0.013c-0.156,0-0.572-0.014-1.25-0.042c-0.479-0.02-1.053-0.027-1.725-0.027
	c-0.334,0-0.745,0.014-1.232,0.042h-0.177l-0.507,0.016v-0.288c0.055-0.014,0.16-0.03,0.317-0.046
	c0.29-0.033,0.489-0.078,0.603-0.134c0.031-0.081,0.046-0.184,0.046-0.307c0-0.047-0.001-0.128-0.004-0.24l0.004-0.132l-0.012-1.573
	l0.004-0.475l-0.021-0.668l0.004-0.472l-0.037-0.518c0-0.016-0.004-0.042-0.009-0.086c-0.026-0.029-0.068-0.05-0.126-0.058
	c-0.028-0.006-0.07-0.015-0.125-0.023c-0.158-0.034-0.312-0.056-0.46-0.061c-0.054-0.003-0.112-0.008-0.186-0.017L104.62,28.477z"/>
<path fill="#FFFFFF" d="M110.962,33.542c0.088-0.023,0.209-0.049,0.365-0.072c0.156-0.021,0.25-0.032,0.277-0.032
	c0.107-0.003,0.182-0.021,0.218-0.055c0.019-0.065,0.024-0.122,0.024-0.167l-0.01-0.533l0.024-0.544V31.79l0.004-0.41l-0.009-0.435
	l0.018-0.933l0.005-0.424V29.53c-0.021-0.293-0.037-0.454-0.058-0.483c-0.019-0.027-0.099-0.064-0.24-0.109
	c-0.014-0.005-0.064-0.026-0.156-0.062c-0.07-0.026-0.135-0.048-0.188-0.059c-0.099-0.025-0.166-0.054-0.204-0.088
	c-0.006-0.072-0.009-0.128-0.009-0.167c0-0.022,0-0.058,0.004-0.102c0.024-0.014,0.052-0.021,0.078-0.021
	c0.066,0,0.311,0.011,0.729,0.033l0.6-0.006l0.441,0.011c0.189,0,0.438-0.014,0.739-0.035c0.089-0.008,0.142-0.011,0.153-0.011
	c0.042,0,0.07,0.01,0.088,0.03c0.021,0.031,0.033,0.086,0.033,0.166c0,0.063-0.017,0.111-0.046,0.146
	c-0.019,0.019-0.078,0.037-0.186,0.05l-0.52,0.122c-0.016,0.005-0.037,0.016-0.069,0.033c-0.013,0.02-0.021,0.037-0.024,0.05
	l-0.005,0.117l-0.013,0.264v0.075v0.046c0,0.014-0.004,0.091-0.011,0.229c-0.002,0.037-0.003,0.073-0.003,0.109
	c0,0.045,0.003,0.12,0.009,0.228c0.009,0.167,0.013,0.312,0.013,0.438c0,0.146-0.004,0.312-0.013,0.498
	c-0.003,0.07-0.005,0.16-0.005,0.271l-0.019,1.982c0,0.084,0.016,0.138,0.043,0.163l0.396,0.016l0.246-0.004l0.265,0.004
	c0.447,0,0.801-0.051,1.059-0.152c0.19-0.078,0.315-0.156,0.376-0.233c0.095-0.083,0.172-0.174,0.23-0.271
	c0.062-0.099,0.127-0.26,0.201-0.483h0.135c0.066,0,0.145,0.006,0.228,0.017v0.116c0,0.201-0.023,0.551-0.075,1.051
	c-0.021,0.2-0.04,0.322-0.06,0.366c-0.063,0.014-0.104,0.019-0.121,0.019h-0.153l-0.218,0.004c-0.023,0-0.189-0.013-0.497-0.033
	c-0.058-0.003-0.321-0.012-0.799-0.03c-0.478-0.016-0.942-0.022-1.4-0.022l-0.852,0.022c-0.328,0.009-0.638,0.024-0.925,0.047
	h-0.062c-0.019,0-0.044-0.002-0.08-0.005c-0.005-0.028-0.008-0.057-0.008-0.079C110.934,33.68,110.942,33.594,110.962,33.542"/>
<path fill="#FFFFFF" d="M119.031,33.885l0.013-0.282c0.351-0.045,0.57-0.116,0.665-0.213c0.062-0.067,0.107-0.241,0.144-0.523
	l0.056-1.487l0.062-1.513c0.005-0.092,0.007-0.147,0.007-0.167c0-0.393-0.021-0.62-0.067-0.681
	c-0.046-0.062-0.227-0.121-0.537-0.182c-0.078-0.016-0.141-0.029-0.185-0.042c-0.006-0.067-0.009-0.128-0.009-0.175v-0.13
	c0.104-0.008,0.225-0.012,0.361-0.012l1.225,0.041c0.025,0.003,0.064,0.006,0.115,0.009l0.191,0.008
	c0.047,0.057,0.095,0.131,0.146,0.222c0.102,0.204,0.234,0.502,0.404,0.896l0.048,0.112l0.649,1.418
	c0.016,0.031,0.037,0.081,0.067,0.145c0.046,0.099,0.091,0.193,0.134,0.285c0.043,0.091,0.091,0.188,0.142,0.298
	s0.099,0.204,0.14,0.29c0.036-0.067,0.073-0.141,0.11-0.221c0.11-0.257,0.223-0.492,0.325-0.707
	c0.187-0.379,0.435-0.958,0.748-1.738c0.051-0.126,0.133-0.312,0.248-0.567c0.115-0.251,0.18-0.384,0.191-0.396
	c0.021-0.022,0.071-0.034,0.146-0.034c0.027,0,0.07-0.001,0.13-0.004c0.146-0.008,0.317-0.015,0.521-0.021
	c0.292-0.003,0.524-0.013,0.703-0.026c0.177-0.017,0.274-0.023,0.299-0.023c0.028,0,0.062,0.003,0.102,0.009
	c0.002,0.04,0.004,0.069,0.004,0.093l-0.009,0.126c0,0.023-0.001,0.062-0.005,0.111c-0.262,0.039-0.475,0.099-0.64,0.177
	c-0.114,0.056-0.172,0.125-0.172,0.209v0.062l0.07,1.278c0.01,0.117,0.03,0.698,0.067,1.743c0.009,0.232,0.026,0.529,0.056,0.89
	c0.006,0.044,0.008,0.08,0.008,0.104c0.004,0.065,0.02,0.108,0.045,0.13c0.024,0.019,0.274,0.1,0.75,0.242
	c0.004,0.045,0.005,0.076,0.005,0.101c0,0.058-0.001,0.117-0.005,0.175c-0.074,0-0.266-0.016-0.566-0.048
	c-0.305-0.032-0.588-0.048-0.854-0.048c-0.402,0-0.797,0.017-1.18,0.05c-0.05,0.006-0.099,0.01-0.146,0.013l0.01-0.289
	c0.114-0.044,0.267-0.082,0.455-0.111c0.134-0.022,0.219-0.061,0.255-0.112s0.056-0.201,0.056-0.443
	c0-0.092-0.002-0.173-0.005-0.242c-0.015-0.292-0.021-0.698-0.023-1.221l-0.07-1.475c-0.008-0.209-0.02-0.354-0.029-0.436
	l-1.039,2.392c-0.024,0.055-0.062,0.136-0.113,0.242c-0.062,0.137-0.105,0.229-0.129,0.278c-0.215,0.517-0.361,0.91-0.444,1.185
	c-0.023,0.067-0.059,0.159-0.104,0.271l-0.321-0.004l-0.227-0.639c-0.065-0.167-0.181-0.421-0.343-0.762
	c-0.096-0.197-0.169-0.357-0.224-0.479c-0.023-0.05-0.043-0.088-0.055-0.113l-0.051-0.104c-0.003-0.018-0.007-0.03-0.014-0.041
	l-0.622-1.342l-0.381-0.815l-0.032,1.978l-0.029,1.282c0,0.212,0.039,0.363,0.119,0.453c0.079,0.091,0.25,0.168,0.513,0.232
	l0.199,0.05v0.305c-0.16-0.003-0.335-0.014-0.52-0.035c-0.188-0.021-0.434-0.03-0.738-0.03
	C119.79,33.846,119.517,33.86,119.031,33.885"/>
<path fill="#FFFFFF" d="M127.119,28.828l-0.014-0.33c0.051-0.003,0.103-0.004,0.154-0.004c0.14,0,0.285,0.004,0.438,0.012
	c0.367,0.021,0.585,0.03,0.646,0.03c0.226,0,0.441-0.005,0.654-0.014c0.215-0.008,0.403-0.016,0.569-0.019
	c0.166-0.002,0.277-0.005,0.337-0.007l-0.004,0.049l0.008,0.243v0.034c-0.155,0.021-0.315,0.033-0.482,0.033
	c-0.156,0-0.261,0.031-0.312,0.092c-0.033,0.039-0.051,0.205-0.051,0.497c0,0.09,0.002,0.162,0.005,0.217l0.004,0.151l-0.009,0.393
	l0.024,0.334l-0.019,0.725l0.056,1.049c0.015,0.304,0.08,0.556,0.199,0.756c0.091,0.146,0.216,0.263,0.377,0.347
	c0.232,0.117,0.465,0.176,0.688,0.176c0.268,0,0.518-0.033,0.748-0.104c0.137-0.039,0.266-0.104,0.387-0.19
	c0.12-0.088,0.205-0.168,0.253-0.238c0.102-0.153,0.17-0.299,0.209-0.433c0.054-0.183,0.079-0.469,0.079-0.854
	c0-0.674-0.036-1.436-0.107-2.278l-0.018-0.221c-0.009-0.165-0.039-0.275-0.093-0.33c-0.089-0.087-0.188-0.13-0.302-0.13
	l-0.394,0.009l-0.056-0.013l0.01-0.322h0.329l0.799,0.038c0.269,0,0.521-0.015,0.766-0.038l0.07,0.009
	c0.017,0.091,0.023,0.156,0.023,0.192c0,0.029-0.006,0.066-0.019,0.111c-0.104,0.028-0.212,0.046-0.325,0.052
	c-0.188,0.023-0.29,0.046-0.31,0.062c-0.039,0.034-0.061,0.085-0.061,0.155c0,0.051,0.005,0.123,0.015,0.218
	c0.008,0.069,0.013,0.19,0.013,0.363c0,0.098,0,0.175,0.003,0.229c0.001,0.057,0.003,0.113,0.006,0.171
	c0.01,0.201,0.017,0.404,0.021,0.611l0.041,0.849c0,0.569-0.021,0.949-0.061,1.143c-0.039,0.192-0.092,0.345-0.157,0.456
	c-0.104,0.167-0.25,0.321-0.438,0.462c-0.188,0.141-0.427,0.253-0.711,0.335c-0.283,0.082-0.614,0.123-0.993,0.123
	c-0.433,0-0.804-0.058-1.11-0.173c-0.312-0.116-0.543-0.27-0.7-0.456c-0.156-0.188-0.267-0.434-0.323-0.733
	c-0.042-0.206-0.062-0.502-0.062-0.886v-1.993c0-0.471-0.021-0.737-0.065-0.798c-0.062-0.087-0.253-0.136-0.573-0.147
	C127.225,28.841,127.166,28.836,127.119,28.828"/>
<path fill="#FFFFFF" d="M137.255,28.598c0.026,0.095,0.054,0.236,0.074,0.431c0.033,0.286,0.051,0.509,0.051,0.668
	c0,0.05-0.007,0.104-0.018,0.163l-0.042,0.012l-0.302-0.021l-0.05-0.01c-0.123-0.366-0.245-0.615-0.368-0.748
	c-0.212-0.223-0.461-0.334-0.748-0.334c-0.271,0-0.488,0.072-0.648,0.217c-0.159,0.144-0.238,0.32-0.238,0.532
	c0,0.18,0.078,0.352,0.235,0.516c0.155,0.165,0.487,0.322,0.995,0.471c0.17,0.051,0.376,0.131,0.616,0.242
	c0.241,0.111,0.425,0.231,0.55,0.363c0.167,0.173,0.281,0.34,0.345,0.5c0.062,0.158,0.096,0.358,0.096,0.6
	c0,0.262-0.05,0.52-0.146,0.773c-0.054,0.134-0.139,0.261-0.254,0.38c-0.083,0.084-0.215,0.182-0.39,0.295
	c-0.177,0.111-0.356,0.193-0.546,0.244c-0.188,0.051-0.432,0.074-0.727,0.074c-0.194,0-0.429-0.026-0.697-0.084l-0.502-0.146
	c-0.14-0.039-0.229-0.074-0.264-0.104c-0.015-0.012-0.025-0.036-0.037-0.078v-0.048c0-0.029-0.01-0.222-0.021-0.571
	c-0.007-0.182-0.009-0.311-0.009-0.386v-0.157l0.39-0.01c0.132,0.312,0.221,0.498,0.257,0.562c0.089,0.143,0.185,0.258,0.287,0.346
	c0.104,0.088,0.229,0.158,0.373,0.209c0.146,0.052,0.303,0.078,0.473,0.078c0.149,0,0.314-0.032,0.496-0.096
	c0.181-0.064,0.325-0.17,0.438-0.316c0.107-0.146,0.165-0.303,0.165-0.471c0-0.206-0.099-0.397-0.289-0.573
	c-0.117-0.106-0.434-0.254-0.944-0.435c-0.513-0.183-0.866-0.345-1.064-0.485c-0.195-0.143-0.354-0.333-0.468-0.571
	c-0.114-0.236-0.173-0.468-0.173-0.688c0-0.443,0.159-0.819,0.479-1.128c0.316-0.312,0.785-0.465,1.403-0.465
	c0.134,0,0.331,0.022,0.594,0.07C136.781,28.451,136.992,28.51,137.255,28.598"/>
<path fill="#FFFFFF" d="M138.519,28.477c0.159,0.008,0.297,0.021,0.414,0.038c0.221,0.028,0.476,0.045,0.766,0.045
	c0.103,0,0.357-0.01,0.772-0.024c0.621-0.026,1.184-0.038,1.685-0.038l0.757-0.008c0.171,0,0.421,0.02,0.752,0.062
	c0.052,0.058,0.075,0.133,0.075,0.228v0.861l0.009,0.171c0,0.017-0.002,0.042-0.005,0.073l-0.171,0.011
	c-0.021,0-0.07-0.003-0.144-0.011c-0.023-0.055-0.061-0.137-0.102-0.244l-0.168-0.299c-0.062-0.125-0.151-0.254-0.269-0.385
	c-0.068-0.019-0.158-0.03-0.269-0.033c-0.026-0.003-0.111-0.009-0.255-0.021c-0.261-0.022-0.538-0.033-0.836-0.033
	c-0.341,0-0.645,0.005-0.911,0.019c-0.009,0.067-0.014,0.343-0.014,0.82l0.005,0.703v0.526c0.069,0.009,0.131,0.013,0.182,0.013
	c0.5,0,0.854-0.01,1.066-0.03c0.213-0.019,0.344-0.046,0.395-0.081c0.052-0.033,0.097-0.095,0.136-0.182
	c0.022-0.061,0.072-0.266,0.146-0.614l0.055-0.004l0.241,0.004c0.013,0.248,0.019,0.438,0.019,0.564
	c0,0.293-0.002,0.479-0.007,0.562c-0.005,0.084-0.007,0.149-0.007,0.197c0,0.075,0.005,0.195,0.014,0.361
	c0.008,0.166,0.014,0.289,0.014,0.37v0.092h-0.298c-0.012-0.045-0.031-0.136-0.062-0.276c-0.057-0.259-0.104-0.42-0.149-0.483
	c-0.032-0.052-0.089-0.089-0.167-0.113c-0.058-0.021-0.263-0.029-0.62-0.029c-0.422,0-0.737,0.011-0.95,0.034v0.142
	c0,0.331,0.006,0.607,0.02,0.827l-0.01,0.903c0,0.104,0.037,0.178,0.112,0.217c0.112,0.061,0.464,0.088,1.049,0.088
	c0.389,0,0.717-0.027,0.984-0.088c0.188-0.042,0.353-0.135,0.493-0.28c0.188-0.187,0.348-0.446,0.474-0.783
	c0.086-0.011,0.156-0.015,0.213-0.015c0.029,0,0.076,0.001,0.14,0.004c-0.008,0.07-0.017,0.128-0.021,0.178l-0.023,0.125
	l-0.151,0.79l-0.073,0.476c-0.182,0.009-0.324,0.013-0.432,0.013c-0.156,0-0.573-0.014-1.25-0.042
	c-0.479-0.02-1.053-0.027-1.726-0.027c-0.334,0-0.744,0.014-1.231,0.042h-0.176l-0.509,0.016v-0.288
	c0.056-0.014,0.16-0.03,0.317-0.046c0.29-0.033,0.49-0.078,0.604-0.134c0.03-0.081,0.047-0.184,0.047-0.307
	c0-0.047-0.001-0.128-0.005-0.24l0.005-0.132l-0.014-1.573l0.005-0.475l-0.021-0.668l0.004-0.472l-0.037-0.518
	c0-0.016-0.004-0.042-0.009-0.086c-0.027-0.029-0.069-0.05-0.126-0.058c-0.029-0.006-0.071-0.015-0.125-0.023
	c-0.158-0.034-0.312-0.056-0.46-0.061c-0.053-0.003-0.113-0.008-0.187-0.017L138.519,28.477z"/>
<path fill="#FFFFFF" d="M145.043,31.115c0-0.346,0.067-0.693,0.2-1.041c0.1-0.25,0.233-0.48,0.409-0.689s0.396-0.395,0.659-0.559
	c0.266-0.162,0.534-0.279,0.811-0.35c0.275-0.071,0.584-0.107,0.925-0.107c0.577,0,1.08,0.109,1.508,0.326
	c0.426,0.217,0.762,0.511,1.007,0.882c0.315,0.482,0.477,0.987,0.477,1.517c0,0.788-0.269,1.466-0.805,2.026
	c-0.535,0.563-1.281,0.845-2.235,0.845c-0.234,0-0.458-0.016-0.664-0.046c-0.153-0.021-0.292-0.053-0.407-0.093
	c-0.211-0.069-0.33-0.109-0.354-0.121c-0.305-0.172-0.548-0.349-0.729-0.53c-0.187-0.182-0.342-0.386-0.47-0.613
	c-0.068-0.128-0.147-0.359-0.236-0.693C145.073,31.652,145.043,31.402,145.043,31.115 M147.888,28.782
	c-0.242,0-0.456,0.056-0.645,0.169c-0.188,0.113-0.327,0.238-0.422,0.374c-0.158,0.231-0.271,0.484-0.339,0.758
	c-0.065,0.275-0.1,0.609-0.1,1.001c0,0.24,0.01,0.411,0.027,0.516c0.005,0.032,0.016,0.091,0.023,0.172
	c0.023,0.206,0.056,0.354,0.088,0.451c0.119,0.354,0.204,0.57,0.256,0.654c0.083,0.144,0.207,0.283,0.37,0.422
	c0.083,0.072,0.204,0.141,0.363,0.198c0.157,0.062,0.315,0.09,0.476,0.09c0.302,0,0.58-0.068,0.838-0.211
	c0.257-0.14,0.464-0.379,0.619-0.716s0.233-0.776,0.233-1.316c0-0.224-0.018-0.524-0.047-0.905l-0.021-0.08
	c-0.009-0.022-0.021-0.079-0.041-0.171c-0.104-0.457-0.301-0.807-0.592-1.045C148.692,28.903,148.326,28.782,147.888,28.782"/>
<path fill="#FFFFFF" d="M154.307,33.541c0.042-0.01,0.128-0.025,0.26-0.049c0.26-0.045,0.43-0.104,0.511-0.18
	c0.05-0.047,0.082-0.14,0.098-0.272c0.003-0.033,0.013-0.458,0.027-1.271l-0.004-0.459l0.004-0.557l-0.015-1.424v-0.167
	c0-0.072-0.021-0.128-0.059-0.167c-0.021-0.02-0.072-0.029-0.162-0.029c-0.072,0-0.155,0.01-0.25,0.025
	c-0.123,0.005-0.233,0.017-0.33,0.033c-0.02,0.003-0.044,0.007-0.08,0.013l-0.004-0.368c0.164-0.053,0.397-0.104,0.706-0.152
	c0.507-0.084,1.131-0.126,1.871-0.126c0.617,0,1.07,0.033,1.357,0.104c0.437,0.108,0.787,0.271,1.062,0.484
	c0.362,0.287,0.638,0.619,0.818,0.996c0.184,0.377,0.273,0.788,0.273,1.231c0,0.563-0.123,1.045-0.368,1.448
	c-0.244,0.402-0.598,0.724-1.057,0.966c-0.323,0.173-0.765,0.259-1.316,0.259l-0.855-0.032l-0.25-0.013l-0.34,0.008l-0.102-0.008
	l-0.352,0.008l-0.465-0.005c-0.018,0-0.158,0.011-0.426,0.027c-0.091,0.005-0.207,0.009-0.353,0.011c-0.09,0-0.156,0.001-0.2,0.004
	C154.31,33.82,154.307,33.706,154.307,33.541 M156.333,28.892c-0.006,0.086-0.009,0.146-0.009,0.184l0.009,0.71v0.617
	c0.006,0.2,0.01,0.376,0.01,0.526l-0.01,0.396l0.014,0.663l-0.014,0.409c0,0.381,0.07,0.64,0.214,0.774
	c0.205,0.195,0.489,0.292,0.854,0.292c0.275,0,0.479-0.024,0.609-0.078c0.271-0.104,0.488-0.245,0.648-0.422
	c0.16-0.176,0.281-0.424,0.364-0.744c0.084-0.32,0.126-0.652,0.126-0.994c0-0.562-0.09-1.021-0.271-1.376
	c-0.181-0.356-0.427-0.624-0.737-0.805c-0.312-0.179-0.67-0.269-1.072-0.269C156.784,28.779,156.539,28.816,156.333,28.892"/>
<path fill="#FFFFFF" d="M161.206,28.477c0.159,0.008,0.297,0.021,0.414,0.038c0.222,0.028,0.477,0.045,0.767,0.045
	c0.102,0,0.356-0.01,0.771-0.024c0.621-0.026,1.185-0.038,1.686-0.038l0.757-0.008c0.17,0,0.42,0.02,0.752,0.062
	c0.051,0.058,0.075,0.133,0.075,0.228v0.861l0.008,0.171c0,0.017-0.001,0.042-0.004,0.073l-0.171,0.011
	c-0.021,0-0.07-0.003-0.145-0.011c-0.022-0.055-0.06-0.137-0.101-0.244l-0.168-0.299c-0.062-0.125-0.152-0.254-0.27-0.385
	c-0.067-0.019-0.157-0.03-0.268-0.033c-0.027-0.003-0.112-0.009-0.255-0.021c-0.261-0.022-0.538-0.033-0.836-0.033
	c-0.341,0-0.646,0.005-0.911,0.019c-0.009,0.067-0.014,0.343-0.014,0.82l0.005,0.703v0.526c0.068,0.009,0.13,0.013,0.181,0.013
	c0.5,0,0.854-0.01,1.066-0.03c0.214-0.019,0.344-0.046,0.396-0.081c0.051-0.033,0.096-0.095,0.135-0.182
	c0.022-0.061,0.072-0.266,0.146-0.614l0.055-0.004l0.242,0.004c0.012,0.248,0.018,0.438,0.018,0.564
	c0,0.293-0.002,0.479-0.007,0.562c-0.004,0.084-0.007,0.149-0.007,0.197c0,0.075,0.005,0.195,0.014,0.361s0.015,0.289,0.015,0.37
	v0.092h-0.298c-0.013-0.045-0.031-0.136-0.062-0.276c-0.056-0.259-0.104-0.42-0.149-0.483c-0.031-0.052-0.089-0.089-0.167-0.113
	c-0.058-0.021-0.263-0.029-0.618-0.029c-0.424,0-0.738,0.011-0.951,0.034v0.142c0,0.331,0.006,0.607,0.019,0.827l-0.01,0.903
	c0,0.104,0.038,0.178,0.113,0.217c0.111,0.061,0.464,0.088,1.049,0.088c0.388,0,0.716-0.027,0.984-0.088
	c0.188-0.042,0.352-0.135,0.492-0.28c0.188-0.187,0.349-0.446,0.475-0.783c0.086-0.011,0.155-0.015,0.213-0.015
	c0.029,0,0.076,0.001,0.139,0.004c-0.009,0.07-0.016,0.128-0.021,0.178l-0.024,0.125l-0.151,0.79l-0.072,0.476
	c-0.183,0.009-0.324,0.013-0.433,0.013c-0.154,0-0.571-0.014-1.25-0.042c-0.479-0.02-1.053-0.027-1.725-0.027
	c-0.334,0-0.745,0.014-1.232,0.042h-0.176l-0.508,0.016v-0.288c0.055-0.014,0.16-0.03,0.318-0.046
	c0.289-0.033,0.488-0.078,0.601-0.134c0.032-0.081,0.048-0.184,0.048-0.307c0-0.047-0.002-0.128-0.005-0.24l0.005-0.132
	l-0.013-1.573l0.004-0.475l-0.021-0.668l0.005-0.472l-0.037-0.518c0-0.016-0.003-0.042-0.01-0.086
	c-0.026-0.029-0.068-0.05-0.126-0.058c-0.028-0.006-0.07-0.015-0.125-0.023c-0.157-0.034-0.312-0.056-0.46-0.061
	c-0.054-0.003-0.112-0.008-0.186-0.017L161.206,28.477z"/>
<path fill="#FFFFFF" d="M167.549,33.542c0.086-0.023,0.208-0.049,0.363-0.072c0.156-0.021,0.25-0.032,0.277-0.032
	c0.107-0.003,0.182-0.021,0.218-0.055c0.019-0.065,0.024-0.122,0.024-0.167l-0.01-0.533l0.024-0.544V31.79l0.004-0.41l-0.01-0.435
	l0.019-0.933l0.006-0.424V29.53c-0.021-0.293-0.038-0.454-0.059-0.483c-0.019-0.027-0.099-0.064-0.24-0.109
	c-0.014-0.005-0.064-0.026-0.156-0.062c-0.07-0.026-0.135-0.048-0.188-0.059c-0.099-0.025-0.166-0.054-0.204-0.088
	c-0.006-0.072-0.01-0.128-0.01-0.167c0-0.022,0-0.058,0.005-0.102c0.024-0.014,0.052-0.021,0.078-0.021
	c0.067,0,0.311,0.011,0.729,0.033l0.599-0.006l0.441,0.011c0.19,0,0.438-0.014,0.739-0.035c0.089-0.008,0.143-0.011,0.153-0.011
	c0.042,0,0.071,0.01,0.088,0.03c0.021,0.031,0.033,0.086,0.033,0.166c0,0.063-0.017,0.111-0.046,0.146
	c-0.019,0.019-0.078,0.037-0.186,0.05l-0.52,0.122c-0.015,0.005-0.037,0.016-0.069,0.033c-0.013,0.02-0.021,0.037-0.024,0.05
	l-0.005,0.117l-0.013,0.264v0.075v0.046c0,0.014-0.003,0.091-0.011,0.229c-0.002,0.037-0.003,0.073-0.003,0.109
	c0,0.045,0.003,0.12,0.008,0.228c0.01,0.167,0.014,0.312,0.014,0.438c0,0.146-0.004,0.312-0.014,0.498
	c-0.002,0.07-0.004,0.16-0.004,0.271l-0.018,1.982c0,0.084,0.015,0.138,0.042,0.163l0.396,0.016l0.246-0.004l0.265,0.004
	c0.447,0,0.802-0.051,1.059-0.152c0.19-0.078,0.315-0.156,0.376-0.233c0.095-0.083,0.172-0.174,0.23-0.271
	c0.062-0.099,0.127-0.26,0.202-0.483h0.134c0.066,0,0.145,0.006,0.228,0.017v0.116c0,0.201-0.023,0.551-0.075,1.051
	c-0.021,0.2-0.04,0.322-0.06,0.366c-0.063,0.014-0.104,0.019-0.12,0.019h-0.154l-0.218,0.004c-0.023,0-0.189-0.013-0.497-0.033
	c-0.058-0.003-0.322-0.012-0.799-0.03c-0.478-0.016-0.942-0.022-1.4-0.022l-0.852,0.022c-0.328,0.009-0.638,0.024-0.925,0.047H167.6
	c-0.018,0-0.044-0.002-0.08-0.005c-0.005-0.028-0.008-0.057-0.008-0.079C167.52,33.68,167.528,33.594,167.549,33.542"/>
<path fill="#FFFFFF" d="M175.651,28.757l-0.005-0.315l0.999,0.062l0.447-0.004h0.16c0.173,0,0.438-0.01,0.801-0.029
	c0.206-0.014,0.336-0.021,0.389-0.021c0.352,0,0.615,0.019,0.795,0.059c0.272,0.057,0.488,0.146,0.648,0.269
	c0.158,0.123,0.299,0.297,0.414,0.523c0.113,0.229,0.174,0.438,0.174,0.634c0,0.483-0.152,0.879-0.458,1.181
	c-0.307,0.302-0.689,0.453-1.154,0.453c-0.162,0-0.315-0.021-0.463-0.06c-0.146-0.039-0.282-0.098-0.41-0.176
	c-0.016-0.08-0.021-0.19-0.021-0.334c0.065,0.006,0.128,0.01,0.182,0.012c0.056,0.005,0.104,0.007,0.146,0.007
	c0.236,0,0.438-0.066,0.6-0.197c0.214-0.17,0.319-0.447,0.319-0.829c0-0.273-0.046-0.498-0.14-0.672
	c-0.095-0.175-0.204-0.292-0.332-0.354c-0.18-0.083-0.379-0.125-0.603-0.125c-0.209,0-0.357,0.03-0.447,0.094
	c-0.021,0.034-0.038,0.069-0.051,0.104l0.027,1.97l-0.008,0.168l0.015,0.177c0.002,0.038,0.004,0.097,0.004,0.172v0.343l0.004,0.547
	l-0.008,0.653c0,0.092,0.008,0.216,0.022,0.372l0.832,0.104c0.011,0.067,0.02,0.119,0.02,0.158c0,0.042-0.01,0.101-0.021,0.176
	c-0.07,0.011-0.123,0.019-0.159,0.019c-0.086,0-0.249-0.013-0.489-0.032c-0.237-0.021-0.513-0.031-0.816-0.031
	c-0.345,0-0.675,0.022-0.985,0.067c-0.054,0.008-0.138,0.015-0.251,0.021c-0.012-0.081-0.018-0.141-0.018-0.18
	c0-0.025,0.003-0.064,0.01-0.117l0.255-0.084c0.175-0.052,0.326-0.116,0.455-0.191c0.024-0.081,0.036-0.153,0.036-0.222
	c0-0.027-0.001-0.06-0.004-0.096c-0.003-0.087-0.004-0.208-0.004-0.364l-0.015-1.174l-0.046-1.325
	c-0.021-0.63-0.035-0.969-0.046-1.019c-0.021-0.081-0.054-0.146-0.102-0.191c-0.047-0.046-0.127-0.078-0.237-0.098
	C175.88,28.814,175.727,28.782,175.651,28.757"/>
<path fill="#FFFFFF" d="M181.319,33.63c0.071-0.039,0.18-0.066,0.32-0.086c0.144-0.018,0.271-0.048,0.385-0.09
	c0.015-0.055,0.021-0.096,0.025-0.121c0.005-0.039,0.008-0.173,0.008-0.399L182.053,32l0.019-0.502l-0.01-0.388l0.01-0.228
	c0.008-0.303,0.013-0.587,0.013-0.853c0-0.579-0.007-0.949-0.021-1.111l-0.246-0.05c-0.226-0.014-0.376-0.028-0.45-0.042
	l-0.01-0.251l0.018-0.046c0.141-0.022,0.27-0.033,0.387-0.033c0.062,0,0.191-0.001,0.389-0.004c0.199,0.016,0.311,0.025,0.325,0.025
	l0.223-0.014l0.521-0.024c0.324-0.033,0.67-0.05,1.03-0.05c0.571,0,1.024,0.146,1.362,0.437c0.337,0.291,0.506,0.624,0.506,1.001
	c0,0.281-0.092,0.536-0.271,0.766c-0.185,0.23-0.462,0.404-0.84,0.521c0.031,0.058,0.076,0.126,0.133,0.205
	c0.117,0.167,0.212,0.309,0.284,0.426l0.666,1.082c0.167,0.287,0.274,0.455,0.326,0.504c0.054,0.049,0.158,0.104,0.319,0.16
	c0.126,0.048,0.222,0.095,0.287,0.143c0.019,0.049,0.025,0.091,0.025,0.125c0,0.025-0.001,0.059-0.005,0.098h-0.112l-0.084,0.004
	l-0.217-0.029h-0.173c-0.09-0.014-0.197-0.021-0.329-0.021l-0.418-0.004c-0.031,0-0.128,0.01-0.293,0.027
	c-0.074,0.008-0.136,0.017-0.181,0.021l-0.144-0.276c-0.116-0.209-0.198-0.364-0.246-0.468c-0.122-0.271-0.332-0.7-0.631-1.291
	c-0.141-0.273-0.236-0.428-0.292-0.464c-0.084-0.06-0.229-0.088-0.433-0.088c-0.057,0-0.149,0.003-0.283,0.009
	c-0.009,0.081-0.014,0.177-0.014,0.288l0.021,0.928l-0.024,0.786c0.078,0.047,0.181,0.083,0.306,0.107
	c0.22,0.046,0.403,0.099,0.562,0.158c0,0.138-0.007,0.239-0.018,0.311c-0.055-0.003-0.088-0.004-0.103-0.004L183.77,33.9
	c-0.601-0.053-0.955-0.079-1.065-0.079c-0.07,0-0.124,0.001-0.152,0.004l-0.576,0.038c-0.176,0.019-0.336,0.029-0.48,0.029h-0.181
	c-0.005-0.07-0.008-0.114-0.008-0.136C181.307,33.729,181.311,33.685,181.319,33.63 M183.198,30.926
	c0.134,0.007,0.23,0.01,0.293,0.01c0.476,0,0.811-0.085,1.007-0.255c0.198-0.172,0.298-0.397,0.298-0.683
	c0-0.175-0.023-0.34-0.073-0.495c-0.048-0.153-0.107-0.269-0.183-0.345c-0.104-0.108-0.236-0.19-0.402-0.246
	c-0.122-0.042-0.316-0.062-0.587-0.062c-0.129,0-0.237,0.007-0.33,0.021l-0.009,0.079l0.009,0.564l-0.014,0.343l0.005,0.456
	c-0.007,0.128-0.011,0.294-0.014,0.497V30.926L183.198,30.926z"/>
<path fill="#FFFFFF" d="M187.083,33.885l0.01-0.283c0.054-0.018,0.146-0.037,0.278-0.062c0.216-0.042,0.347-0.08,0.393-0.113
	c0.046-0.032,0.103-0.112,0.169-0.241l0.845-2.208l0.989-2.599h0.266h0.188l0.038,0.075l0.726,1.722
	c0.164,0.365,0.312,0.721,0.442,1.063c0.131,0.344,0.243,0.625,0.339,0.842c0.058,0.131,0.132,0.328,0.229,0.59
	c0.051,0.144,0.126,0.32,0.229,0.534c0.056,0.118,0.099,0.188,0.125,0.205c0.051,0.042,0.132,0.07,0.245,0.084
	c0.11,0.014,0.232,0.046,0.364,0.096c0.015,0.094,0.021,0.16,0.021,0.205c0,0.021-0.001,0.05-0.004,0.092
	c-0.206,0-0.436-0.01-0.682-0.028c-0.248-0.021-0.473-0.029-0.67-0.029c-0.221,0-0.379,0.003-0.478,0.008l-0.71,0.038l-0.205,0.009
	c0-0.098,0.004-0.189,0.014-0.279l0.464-0.102c0.141-0.036,0.222-0.062,0.242-0.083c0.027-0.026,0.042-0.06,0.042-0.096
	s-0.008-0.074-0.021-0.113l-0.166-0.41l-0.327-0.817l-1.596-0.004c-0.061,0.134-0.184,0.461-0.368,0.98
	c-0.055,0.148-0.079,0.248-0.079,0.301c0,0.072,0.021,0.124,0.06,0.154c0.063,0.053,0.188,0.091,0.368,0.113
	c0.023,0.006,0.122,0.021,0.296,0.046c0.003,0.101,0.005,0.17,0.005,0.209c0,0.031-0.003,0.062-0.01,0.096
	c-0.172,0-0.584-0.021-1.234-0.069l-0.173,0.027c-0.206,0.034-0.4,0.051-0.589,0.051h-0.076V33.885z M189.05,31.536
	c0.648,0.009,1.032,0.013,1.149,0.013l0.104-0.004c-0.084-0.248-0.192-0.537-0.326-0.867c-0.134-0.328-0.241-0.58-0.326-0.755
	L189.05,31.536z"/>
<path fill="#FFFFFF" d="M193.278,33.541c0.042-0.01,0.128-0.025,0.26-0.049c0.259-0.045,0.431-0.104,0.512-0.18
	c0.05-0.047,0.081-0.14,0.096-0.272c0.003-0.033,0.014-0.458,0.029-1.271l-0.006-0.459l0.006-0.557l-0.016-1.424v-0.167
	c0-0.072-0.02-0.128-0.059-0.167c-0.021-0.02-0.072-0.029-0.163-0.029c-0.071,0-0.153,0.01-0.25,0.025
	c-0.123,0.005-0.232,0.017-0.33,0.033c-0.019,0.003-0.044,0.007-0.079,0.013l-0.005-0.368c0.164-0.053,0.398-0.104,0.706-0.152
	c0.508-0.084,1.132-0.126,1.872-0.126c0.618,0,1.07,0.033,1.356,0.104c0.437,0.108,0.788,0.271,1.062,0.484
	c0.364,0.287,0.64,0.619,0.819,0.996c0.184,0.377,0.274,0.788,0.274,1.231c0,0.563-0.124,1.045-0.369,1.448
	c-0.245,0.402-0.599,0.724-1.058,0.966c-0.322,0.173-0.764,0.259-1.315,0.259l-0.855-0.032l-0.25-0.013l-0.339,0.008l-0.103-0.008
	l-0.352,0.008l-0.464-0.005c-0.019,0-0.159,0.011-0.428,0.027c-0.09,0.005-0.206,0.009-0.353,0.011
	c-0.089,0-0.155,0.001-0.199,0.004C193.281,33.82,193.278,33.706,193.278,33.541 M195.306,28.892
	c-0.006,0.086-0.01,0.146-0.01,0.184l0.01,0.71v0.617c0.005,0.2,0.008,0.376,0.008,0.526l-0.008,0.396l0.012,0.663l-0.012,0.409
	c0,0.381,0.068,0.64,0.213,0.774c0.206,0.195,0.49,0.292,0.854,0.292c0.274,0,0.479-0.024,0.608-0.078
	c0.272-0.104,0.49-0.245,0.649-0.422c0.159-0.176,0.281-0.424,0.364-0.744c0.084-0.32,0.126-0.652,0.126-0.994
	c0-0.562-0.09-1.021-0.271-1.376c-0.181-0.356-0.426-0.624-0.737-0.805c-0.312-0.179-0.671-0.269-1.073-0.269
	C195.757,28.779,195.512,28.816,195.306,28.892"/>
<path fill="#FFFFFF" d="M200.384,31.115c0-0.346,0.065-0.693,0.197-1.041c0.101-0.25,0.234-0.48,0.41-0.689s0.396-0.395,0.66-0.559
	c0.264-0.162,0.533-0.279,0.81-0.35c0.276-0.071,0.584-0.107,0.926-0.107c0.576,0,1.081,0.109,1.507,0.326
	c0.427,0.217,0.763,0.511,1.007,0.882c0.317,0.482,0.476,0.987,0.476,1.517c0,0.788-0.268,1.466-0.803,2.026
	c-0.536,0.563-1.282,0.845-2.237,0.845c-0.233,0-0.457-0.016-0.661-0.046c-0.155-0.021-0.293-0.053-0.409-0.093
	c-0.211-0.069-0.33-0.109-0.354-0.121c-0.305-0.172-0.547-0.349-0.729-0.53c-0.187-0.182-0.341-0.386-0.47-0.613
	c-0.068-0.128-0.147-0.359-0.236-0.693C200.412,31.652,200.384,31.402,200.384,31.115 M203.228,28.782
	c-0.241,0-0.456,0.056-0.645,0.169c-0.188,0.113-0.325,0.238-0.422,0.374c-0.157,0.231-0.271,0.484-0.338,0.758
	c-0.064,0.275-0.101,0.609-0.101,1.001c0,0.24,0.01,0.411,0.027,0.516c0.007,0.032,0.016,0.091,0.023,0.172
	c0.025,0.206,0.055,0.354,0.089,0.451c0.118,0.354,0.203,0.57,0.255,0.654c0.083,0.144,0.207,0.283,0.371,0.422
	c0.083,0.072,0.204,0.141,0.362,0.198c0.158,0.062,0.315,0.09,0.476,0.09c0.303,0,0.58-0.068,0.838-0.211
	c0.259-0.14,0.465-0.379,0.619-0.716c0.155-0.337,0.233-0.776,0.233-1.316c0-0.224-0.017-0.524-0.046-0.905l-0.021-0.08
	c-0.008-0.022-0.021-0.079-0.041-0.171c-0.104-0.457-0.3-0.807-0.591-1.045C204.031,28.903,203.665,28.782,203.228,28.782"/>
<line fill="none" stroke="#FFFFFF" stroke-width="0.486" x1="0.395" y1="24.573" x2="208.238" y2="24.573"/>
<line fill="none" stroke="#FFFFFF" stroke-width="0.486" x1="0.395" y1="39.134" x2="208.238" y2="39.134"/>
</svg>
